ISO-10303-21;
HEADER;
/* Generated by software containing ST-Developer
 * from STEP Tools, Inc. (www.steptools.com) 
 */
/* OPTION: using custom renumber hook */

FILE_DESCRIPTION(
/* description */ ('STEP AP242',
'CAx-IF Rec.Pracs.---Representation and Presentation of Product Manufa
cturing Information (PMI)---4.0---2014-10-13',
'CAx-IF Rec.Pracs.---3D Tessellated Geometry---0.4---2014-09-14','2;1'),

/* implementation_level */ '2;1');

FILE_NAME(
/* name */ '6826ba0f1bb3e10a137db3f0',
/* time_stamp */ '2025-05-16T04:07:43Z',
/* author */ (''),
/* organization */ (''),
/* preprocessor_version */ 'ST-DEVELOPER v20',
/* originating_system */ 'ONSHAPE BY PTC INC, 1.197',
/* authorisation */ '  ');

FILE_SCHEMA (('AP242_MANAGED_MODEL_BASED_3D_ENGINEERING_MIM_LF { 1 0 10303 442 1 1 4 }'));
ENDSEC;

DATA;
#10=SHAPE_REPRESENTATION_RELATIONSHIP('','',#1035,#11);
#11=ADVANCED_BREP_SHAPE_REPRESENTATION('',(#1033),#1717);
#12=TOROIDAL_SURFACE('',#1063,0.002538,0.001);
#13=TOROIDAL_SURFACE('',#1070,0.002538,0.001);
#14=TOROIDAL_SURFACE('',#1072,0.002538,0.001);
#15=TOROIDAL_SURFACE('',#1078,0.002538,0.001);
#16=CYLINDRICAL_SURFACE('',#1047,0.003538);
#17=CYLINDRICAL_SURFACE('',#1050,0.003538);
#18=CYLINDRICAL_SURFACE('',#1053,0.003538);
#19=CYLINDRICAL_SURFACE('',#1056,0.003538);
#20=CYLINDRICAL_SURFACE('',#1066,0.001);
#21=CYLINDRICAL_SURFACE('',#1068,0.001);
#22=CYLINDRICAL_SURFACE('',#1074,0.001);
#23=CYLINDRICAL_SURFACE('',#1076,0.001);
#24=CYLINDRICAL_SURFACE('',#1082,0.001488);
#25=CYLINDRICAL_SURFACE('',#1090,0.001488);
#26=CYLINDRICAL_SURFACE('',#1110,0.001488);
#27=CYLINDRICAL_SURFACE('',#1116,0.001488);
#28=CYLINDRICAL_SURFACE('',#1129,0.000625);
#29=CYLINDRICAL_SURFACE('',#1130,0.000625);
#30=CYLINDRICAL_SURFACE('',#1131,0.000625);
#31=CYLINDRICAL_SURFACE('',#1132,0.000625);
#32=CYLINDRICAL_SURFACE('',#1133,0.000625);
#33=CYLINDRICAL_SURFACE('',#1134,0.000625);
#34=CIRCLE('',#1038,0.001488);
#35=CIRCLE('',#1039,0.001488);
#36=CIRCLE('',#1040,0.001488);
#37=CIRCLE('',#1041,0.003538);
#38=CIRCLE('',#1042,0.003538);
#39=CIRCLE('',#1043,0.003538);
#40=CIRCLE('',#1044,0.003538);
#41=CIRCLE('',#1045,0.001488);
#42=CIRCLE('',#1048,0.003538);
#43=CIRCLE('',#1051,0.003538);
#44=CIRCLE('',#1054,0.003538);
#45=CIRCLE('',#1057,0.003538);
#46=CIRCLE('',#1059,0.002538);
#47=CIRCLE('',#1060,0.002538);
#48=CIRCLE('',#1061,0.002538);
#49=CIRCLE('',#1062,0.002538);
#50=CIRCLE('',#1064,0.001);
#51=CIRCLE('',#1065,0.001);
#52=CIRCLE('',#1067,0.001);
#53=CIRCLE('',#1069,0.001);
#54=CIRCLE('',#1071,0.001);
#55=CIRCLE('',#1073,0.001);
#56=CIRCLE('',#1075,0.001);
#57=CIRCLE('',#1077,0.001);
#58=CIRCLE('',#1081,0.000625);
#59=CIRCLE('',#1083,0.001488);
#60=CIRCLE('',#1086,0.000625);
#61=CIRCLE('',#1089,0.000625);
#62=CIRCLE('',#1091,0.001488);
#63=CIRCLE('',#1094,0.000625);
#64=CIRCLE('',#1098,0.000625);
#65=CIRCLE('',#1101,0.000625);
#66=CIRCLE('',#1105,0.000625);
#67=CIRCLE('',#1108,0.000625);
#68=CIRCLE('',#1111,0.001488);
#69=CIRCLE('',#1114,0.000625);
#70=CIRCLE('',#1117,0.001488);
#71=CIRCLE('',#1119,0.000625);
#72=CIRCLE('',#1123,0.000625);
#73=CIRCLE('',#1126,0.000625);
#74=ORIENTED_EDGE('',*,*,#346,.F.);
#75=ORIENTED_EDGE('',*,*,#347,.F.);
#76=ORIENTED_EDGE('',*,*,#348,.T.);
#77=ORIENTED_EDGE('',*,*,#349,.F.);
#78=ORIENTED_EDGE('',*,*,#350,.T.);
#79=ORIENTED_EDGE('',*,*,#351,.F.);
#80=ORIENTED_EDGE('',*,*,#352,.F.);
#81=ORIENTED_EDGE('',*,*,#353,.F.);
#82=ORIENTED_EDGE('',*,*,#354,.F.);
#83=ORIENTED_EDGE('',*,*,#355,.T.);
#84=ORIENTED_EDGE('',*,*,#356,.F.);
#85=ORIENTED_EDGE('',*,*,#357,.F.);
#86=ORIENTED_EDGE('',*,*,#358,.T.);
#87=ORIENTED_EDGE('',*,*,#359,.F.);
#88=ORIENTED_EDGE('',*,*,#360,.F.);
#89=ORIENTED_EDGE('',*,*,#361,.F.);
#90=ORIENTED_EDGE('',*,*,#362,.T.);
#91=ORIENTED_EDGE('',*,*,#363,.F.);
#92=ORIENTED_EDGE('',*,*,#364,.T.);
#93=ORIENTED_EDGE('',*,*,#365,.T.);
#94=ORIENTED_EDGE('',*,*,#366,.T.);
#95=ORIENTED_EDGE('',*,*,#367,.T.);
#96=ORIENTED_EDGE('',*,*,#368,.T.);
#97=ORIENTED_EDGE('',*,*,#369,.T.);
#98=ORIENTED_EDGE('',*,*,#370,.T.);
#99=ORIENTED_EDGE('',*,*,#371,.T.);
#100=ORIENTED_EDGE('',*,*,#372,.T.);
#101=ORIENTED_EDGE('',*,*,#373,.F.);
#102=ORIENTED_EDGE('',*,*,#374,.F.);
#103=ORIENTED_EDGE('',*,*,#375,.T.);
#104=ORIENTED_EDGE('',*,*,#376,.T.);
#105=ORIENTED_EDGE('',*,*,#377,.F.);
#106=ORIENTED_EDGE('',*,*,#378,.F.);
#107=ORIENTED_EDGE('',*,*,#379,.T.);
#108=ORIENTED_EDGE('',*,*,#380,.T.);
#109=ORIENTED_EDGE('',*,*,#381,.F.);
#110=ORIENTED_EDGE('',*,*,#382,.T.);
#111=ORIENTED_EDGE('',*,*,#383,.T.);
#112=ORIENTED_EDGE('',*,*,#384,.F.);
#113=ORIENTED_EDGE('',*,*,#361,.T.);
#114=ORIENTED_EDGE('',*,*,#384,.T.);
#115=ORIENTED_EDGE('',*,*,#385,.T.);
#116=ORIENTED_EDGE('',*,*,#386,.F.);
#117=ORIENTED_EDGE('',*,*,#362,.F.);
#118=ORIENTED_EDGE('',*,*,#386,.T.);
#119=ORIENTED_EDGE('',*,*,#387,.T.);
#120=ORIENTED_EDGE('',*,*,#388,.F.);
#121=ORIENTED_EDGE('',*,*,#363,.T.);
#122=ORIENTED_EDGE('',*,*,#388,.T.);
#123=ORIENTED_EDGE('',*,*,#389,.T.);
#124=ORIENTED_EDGE('',*,*,#390,.F.);
#125=ORIENTED_EDGE('',*,*,#364,.F.);
#126=ORIENTED_EDGE('',*,*,#390,.T.);
#127=ORIENTED_EDGE('',*,*,#391,.T.);
#128=ORIENTED_EDGE('',*,*,#392,.F.);
#129=ORIENTED_EDGE('',*,*,#365,.F.);
#130=ORIENTED_EDGE('',*,*,#392,.T.);
#131=ORIENTED_EDGE('',*,*,#393,.T.);
#132=ORIENTED_EDGE('',*,*,#394,.F.);
#133=ORIENTED_EDGE('',*,*,#366,.F.);
#134=ORIENTED_EDGE('',*,*,#394,.T.);
#135=ORIENTED_EDGE('',*,*,#395,.T.);
#136=ORIENTED_EDGE('',*,*,#396,.F.);
#137=ORIENTED_EDGE('',*,*,#367,.F.);
#138=ORIENTED_EDGE('',*,*,#396,.T.);
#139=ORIENTED_EDGE('',*,*,#397,.T.);
#140=ORIENTED_EDGE('',*,*,#382,.F.);
#141=ORIENTED_EDGE('',*,*,#368,.F.);
#142=ORIENTED_EDGE('',*,*,#398,.T.);
#143=ORIENTED_EDGE('',*,*,#399,.T.);
#144=ORIENTED_EDGE('',*,*,#400,.T.);
#145=ORIENTED_EDGE('',*,*,#401,.T.);
#146=ORIENTED_EDGE('',*,*,#402,.T.);
#147=ORIENTED_EDGE('',*,*,#403,.T.);
#148=ORIENTED_EDGE('',*,*,#404,.T.);
#149=ORIENTED_EDGE('',*,*,#405,.T.);
#150=ORIENTED_EDGE('',*,*,#406,.F.);
#151=ORIENTED_EDGE('',*,*,#403,.F.);
#152=ORIENTED_EDGE('',*,*,#407,.F.);
#153=ORIENTED_EDGE('',*,*,#393,.F.);
#154=ORIENTED_EDGE('',*,*,#407,.T.);
#155=ORIENTED_EDGE('',*,*,#402,.F.);
#156=ORIENTED_EDGE('',*,*,#408,.F.);
#157=ORIENTED_EDGE('',*,*,#395,.F.);
#158=ORIENTED_EDGE('',*,*,#406,.T.);
#159=ORIENTED_EDGE('',*,*,#391,.F.);
#160=ORIENTED_EDGE('',*,*,#409,.F.);
#161=ORIENTED_EDGE('',*,*,#404,.F.);
#162=ORIENTED_EDGE('',*,*,#408,.T.);
#163=ORIENTED_EDGE('',*,*,#401,.F.);
#164=ORIENTED_EDGE('',*,*,#410,.F.);
#165=ORIENTED_EDGE('',*,*,#397,.F.);
#166=ORIENTED_EDGE('',*,*,#409,.T.);
#167=ORIENTED_EDGE('',*,*,#389,.F.);
#168=ORIENTED_EDGE('',*,*,#411,.F.);
#169=ORIENTED_EDGE('',*,*,#405,.F.);
#170=ORIENTED_EDGE('',*,*,#410,.T.);
#171=ORIENTED_EDGE('',*,*,#400,.F.);
#172=ORIENTED_EDGE('',*,*,#412,.F.);
#173=ORIENTED_EDGE('',*,*,#383,.F.);
#174=ORIENTED_EDGE('',*,*,#411,.T.);
#175=ORIENTED_EDGE('',*,*,#387,.F.);
#176=ORIENTED_EDGE('',*,*,#413,.F.);
#177=ORIENTED_EDGE('',*,*,#398,.F.);
#178=ORIENTED_EDGE('',*,*,#412,.T.);
#179=ORIENTED_EDGE('',*,*,#399,.F.);
#180=ORIENTED_EDGE('',*,*,#413,.T.);
#181=ORIENTED_EDGE('',*,*,#385,.F.);
#182=ORIENTED_EDGE('',*,*,#370,.F.);
#183=ORIENTED_EDGE('',*,*,#414,.F.);
#184=ORIENTED_EDGE('',*,*,#415,.T.);
#185=ORIENTED_EDGE('',*,*,#416,.T.);
#186=ORIENTED_EDGE('',*,*,#417,.T.);
#187=ORIENTED_EDGE('',*,*,#369,.F.);
#188=ORIENTED_EDGE('',*,*,#418,.F.);
#189=ORIENTED_EDGE('',*,*,#419,.T.);
#190=ORIENTED_EDGE('',*,*,#414,.T.);
#191=ORIENTED_EDGE('',*,*,#373,.T.);
#192=ORIENTED_EDGE('',*,*,#420,.F.);
#193=ORIENTED_EDGE('',*,*,#421,.F.);
#194=ORIENTED_EDGE('',*,*,#418,.T.);
#195=ORIENTED_EDGE('',*,*,#372,.F.);
#196=ORIENTED_EDGE('',*,*,#422,.F.);
#197=ORIENTED_EDGE('',*,*,#423,.T.);
#198=ORIENTED_EDGE('',*,*,#420,.T.);
#199=ORIENTED_EDGE('',*,*,#424,.T.);
#200=ORIENTED_EDGE('',*,*,#371,.F.);
#201=ORIENTED_EDGE('',*,*,#416,.F.);
#202=ORIENTED_EDGE('',*,*,#425,.T.);
#203=ORIENTED_EDGE('',*,*,#422,.T.);
#204=ORIENTED_EDGE('',*,*,#415,.F.);
#205=ORIENTED_EDGE('',*,*,#419,.F.);
#206=ORIENTED_EDGE('',*,*,#421,.T.);
#207=ORIENTED_EDGE('',*,*,#423,.F.);
#208=ORIENTED_EDGE('',*,*,#425,.F.);
#209=ORIENTED_EDGE('',*,*,#426,.F.);
#210=ORIENTED_EDGE('',*,*,#356,.T.);
#211=ORIENTED_EDGE('',*,*,#427,.F.);
#212=ORIENTED_EDGE('',*,*,#428,.F.);
#213=ORIENTED_EDGE('',*,*,#429,.T.);
#214=ORIENTED_EDGE('',*,*,#360,.T.);
#215=ORIENTED_EDGE('',*,*,#430,.F.);
#216=ORIENTED_EDGE('',*,*,#431,.F.);
#217=ORIENTED_EDGE('',*,*,#427,.T.);
#218=ORIENTED_EDGE('',*,*,#359,.T.);
#219=ORIENTED_EDGE('',*,*,#432,.F.);
#220=ORIENTED_EDGE('',*,*,#433,.F.);
#221=ORIENTED_EDGE('',*,*,#430,.T.);
#222=ORIENTED_EDGE('',*,*,#434,.T.);
#223=ORIENTED_EDGE('',*,*,#358,.F.);
#224=ORIENTED_EDGE('',*,*,#435,.F.);
#225=ORIENTED_EDGE('',*,*,#436,.T.);
#226=ORIENTED_EDGE('',*,*,#432,.T.);
#227=ORIENTED_EDGE('',*,*,#357,.T.);
#228=ORIENTED_EDGE('',*,*,#429,.F.);
#229=ORIENTED_EDGE('',*,*,#437,.F.);
#230=ORIENTED_EDGE('',*,*,#435,.T.);
#231=ORIENTED_EDGE('',*,*,#428,.T.);
#232=ORIENTED_EDGE('',*,*,#431,.T.);
#233=ORIENTED_EDGE('',*,*,#433,.T.);
#234=ORIENTED_EDGE('',*,*,#436,.F.);
#235=ORIENTED_EDGE('',*,*,#437,.T.);
#236=ORIENTED_EDGE('',*,*,#438,.T.);
#237=ORIENTED_EDGE('',*,*,#375,.F.);
#238=ORIENTED_EDGE('',*,*,#439,.F.);
#239=ORIENTED_EDGE('',*,*,#440,.T.);
#240=ORIENTED_EDGE('',*,*,#441,.T.);
#241=ORIENTED_EDGE('',*,*,#374,.T.);
#242=ORIENTED_EDGE('',*,*,#442,.F.);
#243=ORIENTED_EDGE('',*,*,#443,.F.);
#244=ORIENTED_EDGE('',*,*,#439,.T.);
#245=ORIENTED_EDGE('',*,*,#444,.F.);
#246=ORIENTED_EDGE('',*,*,#377,.T.);
#247=ORIENTED_EDGE('',*,*,#445,.F.);
#248=ORIENTED_EDGE('',*,*,#446,.F.);
#249=ORIENTED_EDGE('',*,*,#442,.T.);
#250=ORIENTED_EDGE('',*,*,#376,.F.);
#251=ORIENTED_EDGE('',*,*,#441,.F.);
#252=ORIENTED_EDGE('',*,*,#447,.T.);
#253=ORIENTED_EDGE('',*,*,#445,.T.);
#254=ORIENTED_EDGE('',*,*,#440,.F.);
#255=ORIENTED_EDGE('',*,*,#443,.T.);
#256=ORIENTED_EDGE('',*,*,#446,.T.);
#257=ORIENTED_EDGE('',*,*,#447,.F.);
#258=ORIENTED_EDGE('',*,*,#448,.F.);
#259=ORIENTED_EDGE('',*,*,#351,.T.);
#260=ORIENTED_EDGE('',*,*,#449,.F.);
#261=ORIENTED_EDGE('',*,*,#450,.F.);
#262=ORIENTED_EDGE('',*,*,#451,.T.);
#263=ORIENTED_EDGE('',*,*,#355,.F.);
#264=ORIENTED_EDGE('',*,*,#452,.F.);
#265=ORIENTED_EDGE('',*,*,#453,.T.);
#266=ORIENTED_EDGE('',*,*,#449,.T.);
#267=ORIENTED_EDGE('',*,*,#454,.F.);
#268=ORIENTED_EDGE('',*,*,#354,.T.);
#269=ORIENTED_EDGE('',*,*,#455,.F.);
#270=ORIENTED_EDGE('',*,*,#456,.F.);
#271=ORIENTED_EDGE('',*,*,#452,.T.);
#272=ORIENTED_EDGE('',*,*,#353,.T.);
#273=ORIENTED_EDGE('',*,*,#457,.F.);
#274=ORIENTED_EDGE('',*,*,#458,.F.);
#275=ORIENTED_EDGE('',*,*,#455,.T.);
#276=ORIENTED_EDGE('',*,*,#352,.T.);
#277=ORIENTED_EDGE('',*,*,#451,.F.);
#278=ORIENTED_EDGE('',*,*,#459,.F.);
#279=ORIENTED_EDGE('',*,*,#457,.T.);
#280=ORIENTED_EDGE('',*,*,#450,.T.);
#281=ORIENTED_EDGE('',*,*,#453,.F.);
#282=ORIENTED_EDGE('',*,*,#456,.T.);
#283=ORIENTED_EDGE('',*,*,#458,.T.);
#284=ORIENTED_EDGE('',*,*,#459,.T.);
#285=ORIENTED_EDGE('',*,*,#460,.F.);
#286=ORIENTED_EDGE('',*,*,#346,.T.);
#287=ORIENTED_EDGE('',*,*,#461,.F.);
#288=ORIENTED_EDGE('',*,*,#462,.F.);
#289=ORIENTED_EDGE('',*,*,#463,.T.);
#290=ORIENTED_EDGE('',*,*,#350,.F.);
#291=ORIENTED_EDGE('',*,*,#464,.F.);
#292=ORIENTED_EDGE('',*,*,#465,.T.);
#293=ORIENTED_EDGE('',*,*,#461,.T.);
#294=ORIENTED_EDGE('',*,*,#349,.T.);
#295=ORIENTED_EDGE('',*,*,#466,.F.);
#296=ORIENTED_EDGE('',*,*,#467,.F.);
#297=ORIENTED_EDGE('',*,*,#464,.T.);
#298=ORIENTED_EDGE('',*,*,#468,.T.);
#299=ORIENTED_EDGE('',*,*,#348,.F.);
#300=ORIENTED_EDGE('',*,*,#469,.F.);
#301=ORIENTED_EDGE('',*,*,#470,.T.);
#302=ORIENTED_EDGE('',*,*,#466,.T.);
#303=ORIENTED_EDGE('',*,*,#347,.T.);
#304=ORIENTED_EDGE('',*,*,#463,.F.);
#305=ORIENTED_EDGE('',*,*,#471,.F.);
#306=ORIENTED_EDGE('',*,*,#469,.T.);
#307=ORIENTED_EDGE('',*,*,#462,.T.);
#308=ORIENTED_EDGE('',*,*,#465,.F.);
#309=ORIENTED_EDGE('',*,*,#467,.T.);
#310=ORIENTED_EDGE('',*,*,#470,.F.);
#311=ORIENTED_EDGE('',*,*,#471,.T.);
#312=ORIENTED_EDGE('',*,*,#472,.T.);
#313=ORIENTED_EDGE('',*,*,#379,.F.);
#314=ORIENTED_EDGE('',*,*,#473,.F.);
#315=ORIENTED_EDGE('',*,*,#474,.T.);
#316=ORIENTED_EDGE('',*,*,#475,.T.);
#317=ORIENTED_EDGE('',*,*,#378,.T.);
#318=ORIENTED_EDGE('',*,*,#476,.F.);
#319=ORIENTED_EDGE('',*,*,#477,.F.);
#320=ORIENTED_EDGE('',*,*,#473,.T.);
#321=ORIENTED_EDGE('',*,*,#478,.F.);
#322=ORIENTED_EDGE('',*,*,#381,.T.);
#323=ORIENTED_EDGE('',*,*,#479,.F.);
#324=ORIENTED_EDGE('',*,*,#480,.F.);
#325=ORIENTED_EDGE('',*,*,#476,.T.);
#326=ORIENTED_EDGE('',*,*,#380,.F.);
#327=ORIENTED_EDGE('',*,*,#475,.F.);
#328=ORIENTED_EDGE('',*,*,#481,.T.);
#329=ORIENTED_EDGE('',*,*,#479,.T.);
#330=ORIENTED_EDGE('',*,*,#474,.F.);
#331=ORIENTED_EDGE('',*,*,#477,.T.);
#332=ORIENTED_EDGE('',*,*,#480,.T.);
#333=ORIENTED_EDGE('',*,*,#481,.F.);
#334=ORIENTED_EDGE('',*,*,#472,.F.);
#335=ORIENTED_EDGE('',*,*,#478,.T.);
#336=ORIENTED_EDGE('',*,*,#468,.F.);
#337=ORIENTED_EDGE('',*,*,#460,.T.);
#338=ORIENTED_EDGE('',*,*,#454,.T.);
#339=ORIENTED_EDGE('',*,*,#448,.T.);
#340=ORIENTED_EDGE('',*,*,#438,.F.);
#341=ORIENTED_EDGE('',*,*,#444,.T.);
#342=ORIENTED_EDGE('',*,*,#434,.F.);
#343=ORIENTED_EDGE('',*,*,#426,.T.);
#344=ORIENTED_EDGE('',*,*,#424,.F.);
#345=ORIENTED_EDGE('',*,*,#417,.F.);
#346=EDGE_CURVE('',#482,#483,#574,.T.);
#347=EDGE_CURVE('',#484,#482,#575,.T.);
#348=EDGE_CURVE('',#484,#485,#576,.T.);
#349=EDGE_CURVE('',#486,#485,#34,.T.);
#350=EDGE_CURVE('',#486,#483,#577,.T.);
#351=EDGE_CURVE('',#487,#488,#578,.T.);
#352=EDGE_CURVE('',#489,#487,#35,.T.);
#353=EDGE_CURVE('',#490,#489,#579,.T.);
#354=EDGE_CURVE('',#491,#490,#580,.T.);
#355=EDGE_CURVE('',#491,#488,#581,.T.);
#356=EDGE_CURVE('',#492,#493,#582,.T.);
#357=EDGE_CURVE('',#494,#492,#583,.T.);
#358=EDGE_CURVE('',#494,#495,#584,.T.);
#359=EDGE_CURVE('',#496,#495,#585,.T.);
#360=EDGE_CURVE('',#493,#496,#36,.T.);
#361=EDGE_CURVE('',#497,#498,#586,.T.);
#362=EDGE_CURVE('',#497,#499,#37,.T.);
#363=EDGE_CURVE('',#500,#499,#587,.T.);
#364=EDGE_CURVE('',#500,#501,#38,.T.);
#365=EDGE_CURVE('',#501,#502,#588,.T.);
#366=EDGE_CURVE('',#502,#503,#39,.T.);
#367=EDGE_CURVE('',#503,#504,#589,.T.);
#368=EDGE_CURVE('',#504,#498,#40,.T.);
#369=EDGE_CURVE('',#505,#506,#590,.T.);
#370=EDGE_CURVE('',#506,#507,#591,.T.);
#371=EDGE_CURVE('',#507,#508,#592,.T.);
#372=EDGE_CURVE('',#508,#509,#593,.T.);
#373=EDGE_CURVE('',#505,#509,#41,.T.);
#374=EDGE_CURVE('',#510,#511,#594,.T.);
#375=EDGE_CURVE('',#510,#512,#595,.T.);
#376=EDGE_CURVE('',#512,#513,#596,.T.);
#377=EDGE_CURVE('',#511,#513,#597,.T.);
#378=EDGE_CURVE('',#514,#515,#598,.T.);
#379=EDGE_CURVE('',#514,#516,#599,.T.);
#380=EDGE_CURVE('',#516,#517,#600,.T.);
#381=EDGE_CURVE('',#515,#517,#601,.T.);
#382=EDGE_CURVE('',#498,#518,#602,.T.);
#383=EDGE_CURVE('',#518,#519,#603,.F.);
#384=EDGE_CURVE('',#497,#519,#604,.T.);
#385=EDGE_CURVE('',#519,#520,#42,.T.);
#386=EDGE_CURVE('',#499,#520,#605,.T.);
#387=EDGE_CURVE('',#520,#521,#606,.F.);
#388=EDGE_CURVE('',#500,#521,#607,.T.);
#389=EDGE_CURVE('',#521,#522,#43,.T.);
#390=EDGE_CURVE('',#501,#522,#608,.T.);
#391=EDGE_CURVE('',#522,#523,#609,.T.);
#392=EDGE_CURVE('',#502,#523,#610,.T.);
#393=EDGE_CURVE('',#523,#524,#44,.T.);
#394=EDGE_CURVE('',#503,#524,#611,.T.);
#395=EDGE_CURVE('',#524,#525,#612,.T.);
#396=EDGE_CURVE('',#504,#525,#613,.T.);
#397=EDGE_CURVE('',#525,#518,#45,.T.);
#398=EDGE_CURVE('',#526,#527,#614,.T.);
#399=EDGE_CURVE('',#527,#528,#46,.F.);
#400=EDGE_CURVE('',#528,#529,#615,.T.);
#401=EDGE_CURVE('',#529,#530,#47,.F.);
#402=EDGE_CURVE('',#530,#531,#616,.F.);
#403=EDGE_CURVE('',#531,#532,#48,.F.);
#404=EDGE_CURVE('',#532,#533,#617,.F.);
#405=EDGE_CURVE('',#533,#526,#49,.F.);
#406=EDGE_CURVE('',#532,#523,#50,.T.);
#407=EDGE_CURVE('',#524,#531,#51,.T.);
#408=EDGE_CURVE('',#525,#530,#52,.T.);
#409=EDGE_CURVE('',#533,#522,#53,.T.);
#410=EDGE_CURVE('',#518,#529,#54,.T.);
#411=EDGE_CURVE('',#526,#521,#55,.T.);
#412=EDGE_CURVE('',#519,#528,#56,.T.);
#413=EDGE_CURVE('',#527,#520,#57,.T.);
#414=EDGE_CURVE('',#534,#506,#618,.T.);
#415=EDGE_CURVE('',#534,#535,#619,.T.);
#416=EDGE_CURVE('',#535,#507,#620,.T.);
#417=EDGE_CURVE('',#536,#536,#58,.T.);
#418=EDGE_CURVE('',#537,#505,#621,.T.);
#419=EDGE_CURVE('',#537,#534,#622,.T.);
#420=EDGE_CURVE('',#538,#509,#623,.T.);
#421=EDGE_CURVE('',#537,#538,#59,.T.);
#422=EDGE_CURVE('',#539,#508,#624,.T.);
#423=EDGE_CURVE('',#539,#538,#625,.T.);
#424=EDGE_CURVE('',#540,#540,#60,.F.);
#425=EDGE_CURVE('',#535,#539,#626,.T.);
#426=EDGE_CURVE('',#541,#541,#61,.F.);
#427=EDGE_CURVE('',#542,#493,#627,.T.);
#428=EDGE_CURVE('',#543,#542,#628,.T.);
#429=EDGE_CURVE('',#543,#492,#629,.T.);
#430=EDGE_CURVE('',#544,#496,#630,.T.);
#431=EDGE_CURVE('',#542,#544,#62,.T.);
#432=EDGE_CURVE('',#545,#495,#631,.T.);
#433=EDGE_CURVE('',#544,#545,#632,.T.);
#434=EDGE_CURVE('',#546,#546,#63,.F.);
#435=EDGE_CURVE('',#547,#494,#633,.T.);
#436=EDGE_CURVE('',#547,#545,#634,.T.);
#437=EDGE_CURVE('',#547,#543,#635,.T.);
#438=EDGE_CURVE('',#548,#548,#64,.F.);
#439=EDGE_CURVE('',#549,#510,#636,.T.);
#440=EDGE_CURVE('',#549,#550,#637,.T.);
#441=EDGE_CURVE('',#550,#512,#638,.T.);
#442=EDGE_CURVE('',#551,#511,#639,.T.);
#443=EDGE_CURVE('',#549,#551,#640,.T.);
#444=EDGE_CURVE('',#552,#552,#65,.F.);
#445=EDGE_CURVE('',#553,#513,#641,.T.);
#446=EDGE_CURVE('',#551,#553,#642,.T.);
#447=EDGE_CURVE('',#550,#553,#643,.T.);
#448=EDGE_CURVE('',#554,#554,#66,.F.);
#449=EDGE_CURVE('',#555,#488,#644,.T.);
#450=EDGE_CURVE('',#556,#555,#645,.T.);
#451=EDGE_CURVE('',#556,#487,#646,.T.);
#452=EDGE_CURVE('',#557,#491,#647,.T.);
#453=EDGE_CURVE('',#557,#555,#648,.T.);
#454=EDGE_CURVE('',#558,#558,#67,.F.);
#455=EDGE_CURVE('',#559,#490,#649,.T.);
#456=EDGE_CURVE('',#557,#559,#650,.T.);
#457=EDGE_CURVE('',#560,#489,#651,.T.);
#458=EDGE_CURVE('',#559,#560,#652,.T.);
#459=EDGE_CURVE('',#560,#556,#68,.T.);
#460=EDGE_CURVE('',#561,#561,#69,.F.);
#461=EDGE_CURVE('',#562,#483,#653,.T.);
#462=EDGE_CURVE('',#563,#562,#654,.T.);
#463=EDGE_CURVE('',#563,#482,#655,.T.);
#464=EDGE_CURVE('',#564,#486,#656,.T.);
#465=EDGE_CURVE('',#564,#562,#657,.T.);
#466=EDGE_CURVE('',#565,#485,#658,.T.);
#467=EDGE_CURVE('',#564,#565,#70,.T.);
#468=EDGE_CURVE('',#566,#566,#71,.T.);
#469=EDGE_CURVE('',#567,#484,#659,.T.);
#470=EDGE_CURVE('',#567,#565,#660,.T.);
#471=EDGE_CURVE('',#567,#563,#661,.T.);
#472=EDGE_CURVE('',#568,#568,#72,.T.);
#473=EDGE_CURVE('',#569,#514,#662,.T.);
#474=EDGE_CURVE('',#569,#570,#663,.T.);
#475=EDGE_CURVE('',#570,#516,#664,.T.);
#476=EDGE_CURVE('',#571,#515,#665,.T.);
#477=EDGE_CURVE('',#569,#571,#666,.T.);
#478=EDGE_CURVE('',#572,#572,#73,.F.);
#479=EDGE_CURVE('',#573,#517,#667,.T.);
#480=EDGE_CURVE('',#571,#573,#668,.T.);
#481=EDGE_CURVE('',#570,#573,#669,.T.);
#482=VERTEX_POINT('',#1432);
#483=VERTEX_POINT('',#1433);
#484=VERTEX_POINT('',#1435);
#485=VERTEX_POINT('',#1437);
#486=VERTEX_POINT('',#1439);
#487=VERTEX_POINT('',#1442);
#488=VERTEX_POINT('',#1443);
#489=VERTEX_POINT('',#1445);
#490=VERTEX_POINT('',#1447);
#491=VERTEX_POINT('',#1449);
#492=VERTEX_POINT('',#1452);
#493=VERTEX_POINT('',#1453);
#494=VERTEX_POINT('',#1455);
#495=VERTEX_POINT('',#1457);
#496=VERTEX_POINT('',#1459);
#497=VERTEX_POINT('',#1462);
#498=VERTEX_POINT('',#1463);
#499=VERTEX_POINT('',#1465);
#500=VERTEX_POINT('',#1467);
#501=VERTEX_POINT('',#1469);
#502=VERTEX_POINT('',#1471);
#503=VERTEX_POINT('',#1473);
#504=VERTEX_POINT('',#1475);
#505=VERTEX_POINT('',#1478);
#506=VERTEX_POINT('',#1479);
#507=VERTEX_POINT('',#1481);
#508=VERTEX_POINT('',#1483);
#509=VERTEX_POINT('',#1485);
#510=VERTEX_POINT('',#1488);
#511=VERTEX_POINT('',#1489);
#512=VERTEX_POINT('',#1491);
#513=VERTEX_POINT('',#1493);
#514=VERTEX_POINT('',#1496);
#515=VERTEX_POINT('',#1497);
#516=VERTEX_POINT('',#1499);
#517=VERTEX_POINT('',#1501);
#518=VERTEX_POINT('',#1505);
#519=VERTEX_POINT('',#1507);
#520=VERTEX_POINT('',#1511);
#521=VERTEX_POINT('',#1515);
#522=VERTEX_POINT('',#1519);
#523=VERTEX_POINT('',#1523);
#524=VERTEX_POINT('',#1527);
#525=VERTEX_POINT('',#1531);
#526=VERTEX_POINT('',#1537);
#527=VERTEX_POINT('',#1538);
#528=VERTEX_POINT('',#1540);
#529=VERTEX_POINT('',#1542);
#530=VERTEX_POINT('',#1544);
#531=VERTEX_POINT('',#1546);
#532=VERTEX_POINT('',#1548);
#533=VERTEX_POINT('',#1550);
#534=VERTEX_POINT('',#1570);
#535=VERTEX_POINT('',#1572);
#536=VERTEX_POINT('',#1576);
#537=VERTEX_POINT('',#1578);
#538=VERTEX_POINT('',#1582);
#539=VERTEX_POINT('',#1586);
#540=VERTEX_POINT('',#1590);
#541=VERTEX_POINT('',#1595);
#542=VERTEX_POINT('',#1597);
#543=VERTEX_POINT('',#1599);
#544=VERTEX_POINT('',#1603);
#545=VERTEX_POINT('',#1607);
#546=VERTEX_POINT('',#1611);
#547=VERTEX_POINT('',#1613);
#548=VERTEX_POINT('',#1620);
#549=VERTEX_POINT('',#1622);
#550=VERTEX_POINT('',#1624);
#551=VERTEX_POINT('',#1628);
#552=VERTEX_POINT('',#1632);
#553=VERTEX_POINT('',#1634);
#554=VERTEX_POINT('',#1641);
#555=VERTEX_POINT('',#1643);
#556=VERTEX_POINT('',#1645);
#557=VERTEX_POINT('',#1649);
#558=VERTEX_POINT('',#1653);
#559=VERTEX_POINT('',#1655);
#560=VERTEX_POINT('',#1659);
#561=VERTEX_POINT('',#1666);
#562=VERTEX_POINT('',#1668);
#563=VERTEX_POINT('',#1670);
#564=VERTEX_POINT('',#1674);
#565=VERTEX_POINT('',#1678);
#566=VERTEX_POINT('',#1682);
#567=VERTEX_POINT('',#1684);
#568=VERTEX_POINT('',#1691);
#569=VERTEX_POINT('',#1693);
#570=VERTEX_POINT('',#1695);
#571=VERTEX_POINT('',#1699);
#572=VERTEX_POINT('',#1703);
#573=VERTEX_POINT('',#1705);
#574=LINE('',#1431,#670);
#575=LINE('',#1434,#671);
#576=LINE('',#1436,#672);
#577=LINE('',#1440,#673);
#578=LINE('',#1441,#674);
#579=LINE('',#1446,#675);
#580=LINE('',#1448,#676);
#581=LINE('',#1450,#677);
#582=LINE('',#1451,#678);
#583=LINE('',#1454,#679);
#584=LINE('',#1456,#680);
#585=LINE('',#1458,#681);
#586=LINE('',#1461,#682);
#587=LINE('',#1466,#683);
#588=LINE('',#1470,#684);
#589=LINE('',#1474,#685);
#590=LINE('',#1477,#686);
#591=LINE('',#1480,#687);
#592=LINE('',#1482,#688);
#593=LINE('',#1484,#689);
#594=LINE('',#1487,#690);
#595=LINE('',#1490,#691);
#596=LINE('',#1492,#692);
#597=LINE('',#1494,#693);
#598=LINE('',#1495,#694);
#599=LINE('',#1498,#695);
#600=LINE('',#1500,#696);
#601=LINE('',#1502,#697);
#602=LINE('',#1504,#698);
#603=LINE('',#1506,#699);
#604=LINE('',#1508,#700);
#605=LINE('',#1512,#701);
#606=LINE('',#1514,#702);
#607=LINE('',#1516,#703);
#608=LINE('',#1520,#704);
#609=LINE('',#1522,#705);
#610=LINE('',#1524,#706);
#611=LINE('',#1528,#707);
#612=LINE('',#1530,#708);
#613=LINE('',#1532,#709);
#614=LINE('',#1536,#710);
#615=LINE('',#1541,#711);
#616=LINE('',#1545,#712);
#617=LINE('',#1549,#713);
#618=LINE('',#1569,#714);
#619=LINE('',#1571,#715);
#620=LINE('',#1573,#716);
#621=LINE('',#1577,#717);
#622=LINE('',#1579,#718);
#623=LINE('',#1581,#719);
#624=LINE('',#1585,#720);
#625=LINE('',#1587,#721);
#626=LINE('',#1591,#722);
#627=LINE('',#1596,#723);
#628=LINE('',#1598,#724);
#629=LINE('',#1600,#725);
#630=LINE('',#1602,#726);
#631=LINE('',#1606,#727);
#632=LINE('',#1608,#728);
#633=LINE('',#1612,#729);
#634=LINE('',#1614,#730);
#635=LINE('',#1616,#731);
#636=LINE('',#1621,#732);
#637=LINE('',#1623,#733);
#638=LINE('',#1625,#734);
#639=LINE('',#1627,#735);
#640=LINE('',#1629,#736);
#641=LINE('',#1633,#737);
#642=LINE('',#1635,#738);
#643=LINE('',#1637,#739);
#644=LINE('',#1642,#740);
#645=LINE('',#1644,#741);
#646=LINE('',#1646,#742);
#647=LINE('',#1648,#743);
#648=LINE('',#1650,#744);
#649=LINE('',#1654,#745);
#650=LINE('',#1656,#746);
#651=LINE('',#1658,#747);
#652=LINE('',#1660,#748);
#653=LINE('',#1667,#749);
#654=LINE('',#1669,#750);
#655=LINE('',#1671,#751);
#656=LINE('',#1673,#752);
#657=LINE('',#1675,#753);
#658=LINE('',#1677,#754);
#659=LINE('',#1683,#755);
#660=LINE('',#1685,#756);
#661=LINE('',#1687,#757);
#662=LINE('',#1692,#758);
#663=LINE('',#1694,#759);
#664=LINE('',#1696,#760);
#665=LINE('',#1698,#761);
#666=LINE('',#1700,#762);
#667=LINE('',#1704,#763);
#668=LINE('',#1706,#764);
#669=LINE('',#1708,#765);
#670=VECTOR('',#1139,1.);
#671=VECTOR('',#1140,1.);
#672=VECTOR('',#1141,1.);
#673=VECTOR('',#1144,1.);
#674=VECTOR('',#1145,1.);
#675=VECTOR('',#1148,1.);
#676=VECTOR('',#1149,1.);
#677=VECTOR('',#1150,1.);
#678=VECTOR('',#1151,1.);
#679=VECTOR('',#1152,1.);
#680=VECTOR('',#1153,1.);
#681=VECTOR('',#1154,1.);
#682=VECTOR('',#1157,1.);
#683=VECTOR('',#1160,1.);
#684=VECTOR('',#1163,1.);
#685=VECTOR('',#1166,1.);
#686=VECTOR('',#1169,1.);
#687=VECTOR('',#1170,1.);
#688=VECTOR('',#1171,1.);
#689=VECTOR('',#1172,1.);
#690=VECTOR('',#1175,1.);
#691=VECTOR('',#1176,1.);
#692=VECTOR('',#1177,1.);
#693=VECTOR('',#1178,1.);
#694=VECTOR('',#1179,1.);
#695=VECTOR('',#1180,1.);
#696=VECTOR('',#1181,1.);
#697=VECTOR('',#1182,1.);
#698=VECTOR('',#1185,1.);
#699=VECTOR('',#1186,1.);
#700=VECTOR('',#1187,1.);
#701=VECTOR('',#1192,1.);
#702=VECTOR('',#1195,1.);
#703=VECTOR('',#1196,1.);
#704=VECTOR('',#1201,1.);
#705=VECTOR('',#1204,1.);
#706=VECTOR('',#1205,1.);
#707=VECTOR('',#1210,1.);
#708=VECTOR('',#1213,1.);
#709=VECTOR('',#1214,1.);
#710=VECTOR('',#1221,1.);
#711=VECTOR('',#1224,1.);
#712=VECTOR('',#1227,1.);
#713=VECTOR('',#1230,1.);
#714=VECTOR('',#1267,1.);
#715=VECTOR('',#1268,1.);
#716=VECTOR('',#1269,1.);
#717=VECTOR('',#1274,1.);
#718=VECTOR('',#1275,1.);
#719=VECTOR('',#1278,1.);
#720=VECTOR('',#1283,1.);
#721=VECTOR('',#1284,1.);
#722=VECTOR('',#1289,1.);
#723=VECTOR('',#1296,1.);
#724=VECTOR('',#1297,1.);
#725=VECTOR('',#1298,1.);
#726=VECTOR('',#1301,1.);
#727=VECTOR('',#1306,1.);
#728=VECTOR('',#1307,1.);
#729=VECTOR('',#1312,1.);
#730=VECTOR('',#1313,1.);
#731=VECTOR('',#1316,1.);
#732=VECTOR('',#1323,1.);
#733=VECTOR('',#1324,1.);
#734=VECTOR('',#1325,1.);
#735=VECTOR('',#1328,1.);
#736=VECTOR('',#1329,1.);
#737=VECTOR('',#1334,1.);
#738=VECTOR('',#1335,1.);
#739=VECTOR('',#1338,1.);
#740=VECTOR('',#1345,1.);
#741=VECTOR('',#1346,1.);
#742=VECTOR('',#1347,1.);
#743=VECTOR('',#1350,1.);
#744=VECTOR('',#1351,1.);
#745=VECTOR('',#1356,1.);
#746=VECTOR('',#1357,1.);
#747=VECTOR('',#1360,1.);
#748=VECTOR('',#1361,1.);
#749=VECTOR('',#1372,1.);
#750=VECTOR('',#1373,1.);
#751=VECTOR('',#1374,1.);
#752=VECTOR('',#1377,1.);
#753=VECTOR('',#1378,1.);
#754=VECTOR('',#1381,1.);
#755=VECTOR('',#1388,1.);
#756=VECTOR('',#1389,1.);
#757=VECTOR('',#1392,1.);
#758=VECTOR('',#1399,1.);
#759=VECTOR('',#1400,1.);
#760=VECTOR('',#1401,1.);
#761=VECTOR('',#1404,1.);
#762=VECTOR('',#1405,1.);
#763=VECTOR('',#1410,1.);
#764=VECTOR('',#1411,1.);
#765=VECTOR('',#1414,1.);
#766=EDGE_LOOP('',(#74,#75,#76,#77,#78));
#767=EDGE_LOOP('',(#79,#80,#81,#82,#83));
#768=EDGE_LOOP('',(#84,#85,#86,#87,#88));
#769=EDGE_LOOP('',(#89,#90,#91,#92,#93,#94,#95,#96));
#770=EDGE_LOOP('',(#97,#98,#99,#100,#101));
#771=EDGE_LOOP('',(#102,#103,#104,#105));
#772=EDGE_LOOP('',(#106,#107,#108,#109));
#773=EDGE_LOOP('',(#110,#111,#112,#113));
#774=EDGE_LOOP('',(#114,#115,#116,#117));
#775=EDGE_LOOP('',(#118,#119,#120,#121));
#776=EDGE_LOOP('',(#122,#123,#124,#125));
#777=EDGE_LOOP('',(#126,#127,#128,#129));
#778=EDGE_LOOP('',(#130,#131,#132,#133));
#779=EDGE_LOOP('',(#134,#135,#136,#137));
#780=EDGE_LOOP('',(#138,#139,#140,#141));
#781=EDGE_LOOP('',(#142,#143,#144,#145,#146,#147,#148,#149));
#782=EDGE_LOOP('',(#150,#151,#152,#153));
#783=EDGE_LOOP('',(#154,#155,#156,#157));
#784=EDGE_LOOP('',(#158,#159,#160,#161));
#785=EDGE_LOOP('',(#162,#163,#164,#165));
#786=EDGE_LOOP('',(#166,#167,#168,#169));
#787=EDGE_LOOP('',(#170,#171,#172,#173));
#788=EDGE_LOOP('',(#174,#175,#176,#177));
#789=EDGE_LOOP('',(#178,#179,#180,#181));
#790=EDGE_LOOP('',(#182,#183,#184,#185));
#791=EDGE_LOOP('',(#186));
#792=EDGE_LOOP('',(#187,#188,#189,#190));
#793=EDGE_LOOP('',(#191,#192,#193,#194));
#794=EDGE_LOOP('',(#195,#196,#197,#198));
#795=EDGE_LOOP('',(#199));
#796=EDGE_LOOP('',(#200,#201,#202,#203));
#797=EDGE_LOOP('',(#204,#205,#206,#207,#208));
#798=EDGE_LOOP('',(#209));
#799=EDGE_LOOP('',(#210,#211,#212,#213));
#800=EDGE_LOOP('',(#214,#215,#216,#217));
#801=EDGE_LOOP('',(#218,#219,#220,#221));
#802=EDGE_LOOP('',(#222));
#803=EDGE_LOOP('',(#223,#224,#225,#226));
#804=EDGE_LOOP('',(#227,#228,#229,#230));
#805=EDGE_LOOP('',(#231,#232,#233,#234,#235));
#806=EDGE_LOOP('',(#236));
#807=EDGE_LOOP('',(#237,#238,#239,#240));
#808=EDGE_LOOP('',(#241,#242,#243,#244));
#809=EDGE_LOOP('',(#245));
#810=EDGE_LOOP('',(#246,#247,#248,#249));
#811=EDGE_LOOP('',(#250,#251,#252,#253));
#812=EDGE_LOOP('',(#254,#255,#256,#257));
#813=EDGE_LOOP('',(#258));
#814=EDGE_LOOP('',(#259,#260,#261,#262));
#815=EDGE_LOOP('',(#263,#264,#265,#266));
#816=EDGE_LOOP('',(#267));
#817=EDGE_LOOP('',(#268,#269,#270,#271));
#818=EDGE_LOOP('',(#272,#273,#274,#275));
#819=EDGE_LOOP('',(#276,#277,#278,#279));
#820=EDGE_LOOP('',(#280,#281,#282,#283,#284));
#821=EDGE_LOOP('',(#285));
#822=EDGE_LOOP('',(#286,#287,#288,#289));
#823=EDGE_LOOP('',(#290,#291,#292,#293));
#824=EDGE_LOOP('',(#294,#295,#296,#297));
#825=EDGE_LOOP('',(#298));
#826=EDGE_LOOP('',(#299,#300,#301,#302));
#827=EDGE_LOOP('',(#303,#304,#305,#306));
#828=EDGE_LOOP('',(#307,#308,#309,#310,#311));
#829=EDGE_LOOP('',(#312));
#830=EDGE_LOOP('',(#313,#314,#315,#316));
#831=EDGE_LOOP('',(#317,#318,#319,#320));
#832=EDGE_LOOP('',(#321));
#833=EDGE_LOOP('',(#322,#323,#324,#325));
#834=EDGE_LOOP('',(#326,#327,#328,#329));
#835=EDGE_LOOP('',(#330,#331,#332,#333));
#836=EDGE_LOOP('',(#334));
#837=EDGE_LOOP('',(#335));
#838=EDGE_LOOP('',(#336));
#839=EDGE_LOOP('',(#337));
#840=EDGE_LOOP('',(#338));
#841=EDGE_LOOP('',(#339));
#842=EDGE_LOOP('',(#340));
#843=EDGE_LOOP('',(#341));
#844=EDGE_LOOP('',(#342));
#845=EDGE_LOOP('',(#343));
#846=EDGE_LOOP('',(#344));
#847=EDGE_LOOP('',(#345));
#848=FACE_BOUND('',#766,.T.);
#849=FACE_BOUND('',#767,.T.);
#850=FACE_BOUND('',#768,.T.);
#851=FACE_BOUND('',#769,.T.);
#852=FACE_BOUND('',#770,.T.);
#853=FACE_BOUND('',#771,.T.);
#854=FACE_BOUND('',#772,.T.);
#855=FACE_BOUND('',#773,.T.);
#856=FACE_BOUND('',#774,.T.);
#857=FACE_BOUND('',#775,.T.);
#858=FACE_BOUND('',#776,.T.);
#859=FACE_BOUND('',#777,.T.);
#860=FACE_BOUND('',#778,.T.);
#861=FACE_BOUND('',#779,.T.);
#862=FACE_BOUND('',#780,.T.);
#863=FACE_BOUND('',#781,.T.);
#864=FACE_BOUND('',#782,.T.);
#865=FACE_BOUND('',#783,.T.);
#866=FACE_BOUND('',#784,.T.);
#867=FACE_BOUND('',#785,.T.);
#868=FACE_BOUND('',#786,.T.);
#869=FACE_BOUND('',#787,.T.);
#870=FACE_BOUND('',#788,.T.);
#871=FACE_BOUND('',#789,.T.);
#872=FACE_BOUND('',#790,.T.);
#873=FACE_BOUND('',#791,.T.);
#874=FACE_BOUND('',#792,.T.);
#875=FACE_BOUND('',#793,.T.);
#876=FACE_BOUND('',#794,.T.);
#877=FACE_BOUND('',#795,.T.);
#878=FACE_BOUND('',#796,.T.);
#879=FACE_BOUND('',#797,.T.);
#880=FACE_BOUND('',#798,.T.);
#881=FACE_BOUND('',#799,.T.);
#882=FACE_BOUND('',#800,.T.);
#883=FACE_BOUND('',#801,.T.);
#884=FACE_BOUND('',#802,.T.);
#885=FACE_BOUND('',#803,.T.);
#886=FACE_BOUND('',#804,.T.);
#887=FACE_BOUND('',#805,.T.);
#888=FACE_BOUND('',#806,.T.);
#889=FACE_BOUND('',#807,.T.);
#890=FACE_BOUND('',#808,.T.);
#891=FACE_BOUND('',#809,.T.);
#892=FACE_BOUND('',#810,.T.);
#893=FACE_BOUND('',#811,.T.);
#894=FACE_BOUND('',#812,.T.);
#895=FACE_BOUND('',#813,.T.);
#896=FACE_BOUND('',#814,.T.);
#897=FACE_BOUND('',#815,.T.);
#898=FACE_BOUND('',#816,.T.);
#899=FACE_BOUND('',#817,.T.);
#900=FACE_BOUND('',#818,.T.);
#901=FACE_BOUND('',#819,.T.);
#902=FACE_BOUND('',#820,.T.);
#903=FACE_BOUND('',#821,.T.);
#904=FACE_BOUND('',#822,.T.);
#905=FACE_BOUND('',#823,.T.);
#906=FACE_BOUND('',#824,.T.);
#907=FACE_BOUND('',#825,.T.);
#908=FACE_BOUND('',#826,.T.);
#909=FACE_BOUND('',#827,.T.);
#910=FACE_BOUND('',#828,.T.);
#911=FACE_BOUND('',#829,.T.);
#912=FACE_BOUND('',#830,.T.);
#913=FACE_BOUND('',#831,.T.);
#914=FACE_BOUND('',#832,.T.);
#915=FACE_BOUND('',#833,.T.);
#916=FACE_BOUND('',#834,.T.);
#917=FACE_BOUND('',#835,.T.);
#918=FACE_BOUND('',#836,.T.);
#919=FACE_BOUND('',#837,.T.);
#920=FACE_BOUND('',#838,.T.);
#921=FACE_BOUND('',#839,.T.);
#922=FACE_BOUND('',#840,.T.);
#923=FACE_BOUND('',#841,.T.);
#924=FACE_BOUND('',#842,.T.);
#925=FACE_BOUND('',#843,.T.);
#926=FACE_BOUND('',#844,.T.);
#927=FACE_BOUND('',#845,.T.);
#928=FACE_BOUND('',#846,.T.);
#929=FACE_BOUND('',#847,.T.);
#930=PLANE('',#1037);
#931=PLANE('',#1046);
#932=PLANE('',#1049);
#933=PLANE('',#1052);
#934=PLANE('',#1055);
#935=PLANE('',#1058);
#936=PLANE('',#1079);
#937=PLANE('',#1080);
#938=PLANE('',#1084);
#939=PLANE('',#1085);
#940=PLANE('',#1087);
#941=PLANE('',#1088);
#942=PLANE('',#1092);
#943=PLANE('',#1093);
#944=PLANE('',#1095);
#945=PLANE('',#1096);
#946=PLANE('',#1097);
#947=PLANE('',#1099);
#948=PLANE('',#1100);
#949=PLANE('',#1102);
#950=PLANE('',#1103);
#951=PLANE('',#1104);
#952=PLANE('',#1106);
#953=PLANE('',#1107);
#954=PLANE('',#1109);
#955=PLANE('',#1112);
#956=PLANE('',#1113);
#957=PLANE('',#1115);
#958=PLANE('',#1118);
#959=PLANE('',#1120);
#960=PLANE('',#1121);
#961=PLANE('',#1122);
#962=PLANE('',#1124);
#963=PLANE('',#1125);
#964=PLANE('',#1127);
#965=PLANE('',#1128);
#966=ADVANCED_FACE('',(#848,#849,#850,#851,#852,#853,#854),#930,.T.);
#967=ADVANCED_FACE('',(#855),#931,.T.);
#968=ADVANCED_FACE('',(#856),#16,.T.);
#969=ADVANCED_FACE('',(#857),#932,.T.);
#970=ADVANCED_FACE('',(#858),#17,.T.);
#971=ADVANCED_FACE('',(#859),#933,.F.);
#972=ADVANCED_FACE('',(#860),#18,.T.);
#973=ADVANCED_FACE('',(#861),#934,.F.);
#974=ADVANCED_FACE('',(#862),#19,.T.);
#975=ADVANCED_FACE('',(#863),#935,.F.);
#976=ADVANCED_FACE('',(#864),#12,.T.);
#977=ADVANCED_FACE('',(#865),#20,.T.);
#978=ADVANCED_FACE('',(#866),#21,.T.);
#979=ADVANCED_FACE('',(#867),#13,.T.);
#980=ADVANCED_FACE('',(#868),#14,.T.);
#981=ADVANCED_FACE('',(#869),#22,.T.);
#982=ADVANCED_FACE('',(#870),#23,.T.);
#983=ADVANCED_FACE('',(#871),#15,.T.);
#984=ADVANCED_FACE('',(#872),#936,.T.);
#985=ADVANCED_FACE('',(#873,#874),#937,.T.);
#986=ADVANCED_FACE('',(#875),#24,.T.);
#987=ADVANCED_FACE('',(#876),#938,.T.);
#988=ADVANCED_FACE('',(#877,#878),#939,.T.);
#989=ADVANCED_FACE('',(#879),#940,.T.);
#990=ADVANCED_FACE('',(#880,#881),#941,.F.);
#991=ADVANCED_FACE('',(#882),#25,.T.);
#992=ADVANCED_FACE('',(#883),#942,.F.);
#993=ADVANCED_FACE('',(#884,#885),#943,.T.);
#994=ADVANCED_FACE('',(#886),#944,.F.);
#995=ADVANCED_FACE('',(#887),#945,.T.);
#996=ADVANCED_FACE('',(#888,#889),#946,.T.);
#997=ADVANCED_FACE('',(#890),#947,.F.);
#998=ADVANCED_FACE('',(#891,#892),#948,.F.);
#999=ADVANCED_FACE('',(#893),#949,.T.);
#1000=ADVANCED_FACE('',(#894),#950,.T.);
#1001=ADVANCED_FACE('',(#895,#896),#951,.F.);
#1002=ADVANCED_FACE('',(#897),#952,.T.);
#1003=ADVANCED_FACE('',(#898,#899),#953,.F.);
#1004=ADVANCED_FACE('',(#900),#954,.F.);
#1005=ADVANCED_FACE('',(#901),#26,.T.);
#1006=ADVANCED_FACE('',(#902),#955,.T.);
#1007=ADVANCED_FACE('',(#903,#904),#956,.F.);
#1008=ADVANCED_FACE('',(#905),#957,.T.);
#1009=ADVANCED_FACE('',(#906),#27,.T.);
#1010=ADVANCED_FACE('',(#907,#908),#958,.T.);
#1011=ADVANCED_FACE('',(#909),#959,.F.);
#1012=ADVANCED_FACE('',(#910),#960,.T.);
#1013=ADVANCED_FACE('',(#911,#912),#961,.T.);
#1014=ADVANCED_FACE('',(#913),#962,.F.);
#1015=ADVANCED_FACE('',(#914,#915),#963,.F.);
#1016=ADVANCED_FACE('',(#916),#964,.T.);
#1017=ADVANCED_FACE('',(#917),#965,.T.);
#1018=ADVANCED_FACE('',(#918,#919),#28,.F.);
#1019=ADVANCED_FACE('',(#920,#921),#29,.F.);
#1020=ADVANCED_FACE('',(#922,#923),#30,.F.);
#1021=ADVANCED_FACE('',(#924,#925),#31,.F.);
#1022=ADVANCED_FACE('',(#926,#927),#32,.F.);
#1023=ADVANCED_FACE('',(#928,#929),#33,.F.);
#1024=CLOSED_SHELL('',(#966,#967,#968,#969,#970,#971,#972,#973,#974,#975,
#976,#977,#978,#979,#980,#981,#982,#983,#984,#985,#986,#987,#988,#989,#990,
#991,#992,#993,#994,#995,#996,#997,#998,#999,#1000,#1001,#1002,#1003,#1004,
#1005,#1006,#1007,#1008,#1009,#1010,#1011,#1012,#1013,#1014,#1015,#1016,
#1017,#1018,#1019,#1020,#1021,#1022,#1023));
#1025=STYLED_ITEM('',(#1026),#1033);
#1026=PRESENTATION_STYLE_ASSIGNMENT((#1027));
#1027=SURFACE_STYLE_USAGE(.BOTH.,#1028);
#1028=SURFACE_SIDE_STYLE('',(#1029));
#1029=SURFACE_STYLE_FILL_AREA(#1030);
#1030=FILL_AREA_STYLE('',(#1031));
#1031=FILL_AREA_STYLE_COLOUR('',#1032);
#1032=DRAUGHTING_PRE_DEFINED_COLOUR('red');
#1033=MANIFOLD_SOLID_BREP('Back Cover',#1024);
#1034=SHAPE_DEFINITION_REPRESENTATION(#1722,#1035);
#1035=SHAPE_REPRESENTATION('Back Cover',(#1036),#1717);
#1036=AXIS2_PLACEMENT_3D('',#1429,#1135,#1136);
#1037=AXIS2_PLACEMENT_3D('',#1430,#1137,#1138);
#1038=AXIS2_PLACEMENT_3D('',#1438,#1142,#1143);
#1039=AXIS2_PLACEMENT_3D('',#1444,#1146,#1147);
#1040=AXIS2_PLACEMENT_3D('',#1460,#1155,#1156);
#1041=AXIS2_PLACEMENT_3D('',#1464,#1158,#1159);
#1042=AXIS2_PLACEMENT_3D('',#1468,#1161,#1162);
#1043=AXIS2_PLACEMENT_3D('',#1472,#1164,#1165);
#1044=AXIS2_PLACEMENT_3D('',#1476,#1167,#1168);
#1045=AXIS2_PLACEMENT_3D('',#1486,#1173,#1174);
#1046=AXIS2_PLACEMENT_3D('',#1503,#1183,#1184);
#1047=AXIS2_PLACEMENT_3D('',#1509,#1188,#1189);
#1048=AXIS2_PLACEMENT_3D('',#1510,#1190,#1191);
#1049=AXIS2_PLACEMENT_3D('',#1513,#1193,#1194);
#1050=AXIS2_PLACEMENT_3D('',#1517,#1197,#1198);
#1051=AXIS2_PLACEMENT_3D('',#1518,#1199,#1200);
#1052=AXIS2_PLACEMENT_3D('',#1521,#1202,#1203);
#1053=AXIS2_PLACEMENT_3D('',#1525,#1206,#1207);
#1054=AXIS2_PLACEMENT_3D('',#1526,#1208,#1209);
#1055=AXIS2_PLACEMENT_3D('',#1529,#1211,#1212);
#1056=AXIS2_PLACEMENT_3D('',#1533,#1215,#1216);
#1057=AXIS2_PLACEMENT_3D('',#1534,#1217,#1218);
#1058=AXIS2_PLACEMENT_3D('',#1535,#1219,#1220);
#1059=AXIS2_PLACEMENT_3D('',#1539,#1222,#1223);
#1060=AXIS2_PLACEMENT_3D('',#1543,#1225,#1226);
#1061=AXIS2_PLACEMENT_3D('',#1547,#1228,#1229);
#1062=AXIS2_PLACEMENT_3D('',#1551,#1231,#1232);
#1063=AXIS2_PLACEMENT_3D('',#1552,#1233,#1234);
#1064=AXIS2_PLACEMENT_3D('',#1553,#1235,#1236);
#1065=AXIS2_PLACEMENT_3D('',#1554,#1237,#1238);
#1066=AXIS2_PLACEMENT_3D('',#1555,#1239,#1240);
#1067=AXIS2_PLACEMENT_3D('',#1556,#1241,#1242);
#1068=AXIS2_PLACEMENT_3D('',#1557,#1243,#1244);
#1069=AXIS2_PLACEMENT_3D('',#1558,#1245,#1246);
#1070=AXIS2_PLACEMENT_3D('',#1559,#1247,#1248);
#1071=AXIS2_PLACEMENT_3D('',#1560,#1249,#1250);
#1072=AXIS2_PLACEMENT_3D('',#1561,#1251,#1252);
#1073=AXIS2_PLACEMENT_3D('',#1562,#1253,#1254);
#1074=AXIS2_PLACEMENT_3D('',#1563,#1255,#1256);
#1075=AXIS2_PLACEMENT_3D('',#1564,#1257,#1258);
#1076=AXIS2_PLACEMENT_3D('',#1565,#1259,#1260);
#1077=AXIS2_PLACEMENT_3D('',#1566,#1261,#1262);
#1078=AXIS2_PLACEMENT_3D('',#1567,#1263,#1264);
#1079=AXIS2_PLACEMENT_3D('',#1568,#1265,#1266);
#1080=AXIS2_PLACEMENT_3D('',#1574,#1270,#1271);
#1081=AXIS2_PLACEMENT_3D('',#1575,#1272,#1273);
#1082=AXIS2_PLACEMENT_3D('',#1580,#1276,#1277);
#1083=AXIS2_PLACEMENT_3D('',#1583,#1279,#1280);
#1084=AXIS2_PLACEMENT_3D('',#1584,#1281,#1282);
#1085=AXIS2_PLACEMENT_3D('',#1588,#1285,#1286);
#1086=AXIS2_PLACEMENT_3D('',#1589,#1287,#1288);
#1087=AXIS2_PLACEMENT_3D('',#1592,#1290,#1291);
#1088=AXIS2_PLACEMENT_3D('',#1593,#1292,#1293);
#1089=AXIS2_PLACEMENT_3D('',#1594,#1294,#1295);
#1090=AXIS2_PLACEMENT_3D('',#1601,#1299,#1300);
#1091=AXIS2_PLACEMENT_3D('',#1604,#1302,#1303);
#1092=AXIS2_PLACEMENT_3D('',#1605,#1304,#1305);
#1093=AXIS2_PLACEMENT_3D('',#1609,#1308,#1309);
#1094=AXIS2_PLACEMENT_3D('',#1610,#1310,#1311);
#1095=AXIS2_PLACEMENT_3D('',#1615,#1314,#1315);
#1096=AXIS2_PLACEMENT_3D('',#1617,#1317,#1318);
#1097=AXIS2_PLACEMENT_3D('',#1618,#1319,#1320);
#1098=AXIS2_PLACEMENT_3D('',#1619,#1321,#1322);
#1099=AXIS2_PLACEMENT_3D('',#1626,#1326,#1327);
#1100=AXIS2_PLACEMENT_3D('',#1630,#1330,#1331);
#1101=AXIS2_PLACEMENT_3D('',#1631,#1332,#1333);
#1102=AXIS2_PLACEMENT_3D('',#1636,#1336,#1337);
#1103=AXIS2_PLACEMENT_3D('',#1638,#1339,#1340);
#1104=AXIS2_PLACEMENT_3D('',#1639,#1341,#1342);
#1105=AXIS2_PLACEMENT_3D('',#1640,#1343,#1344);
#1106=AXIS2_PLACEMENT_3D('',#1647,#1348,#1349);
#1107=AXIS2_PLACEMENT_3D('',#1651,#1352,#1353);
#1108=AXIS2_PLACEMENT_3D('',#1652,#1354,#1355);
#1109=AXIS2_PLACEMENT_3D('',#1657,#1358,#1359);
#1110=AXIS2_PLACEMENT_3D('',#1661,#1362,#1363);
#1111=AXIS2_PLACEMENT_3D('',#1662,#1364,#1365);
#1112=AXIS2_PLACEMENT_3D('',#1663,#1366,#1367);
#1113=AXIS2_PLACEMENT_3D('',#1664,#1368,#1369);
#1114=AXIS2_PLACEMENT_3D('',#1665,#1370,#1371);
#1115=AXIS2_PLACEMENT_3D('',#1672,#1375,#1376);
#1116=AXIS2_PLACEMENT_3D('',#1676,#1379,#1380);
#1117=AXIS2_PLACEMENT_3D('',#1679,#1382,#1383);
#1118=AXIS2_PLACEMENT_3D('',#1680,#1384,#1385);
#1119=AXIS2_PLACEMENT_3D('',#1681,#1386,#1387);
#1120=AXIS2_PLACEMENT_3D('',#1686,#1390,#1391);
#1121=AXIS2_PLACEMENT_3D('',#1688,#1393,#1394);
#1122=AXIS2_PLACEMENT_3D('',#1689,#1395,#1396);
#1123=AXIS2_PLACEMENT_3D('',#1690,#1397,#1398);
#1124=AXIS2_PLACEMENT_3D('',#1697,#1402,#1403);
#1125=AXIS2_PLACEMENT_3D('',#1701,#1406,#1407);
#1126=AXIS2_PLACEMENT_3D('',#1702,#1408,#1409);
#1127=AXIS2_PLACEMENT_3D('',#1707,#1412,#1413);
#1128=AXIS2_PLACEMENT_3D('',#1709,#1415,#1416);
#1129=AXIS2_PLACEMENT_3D('',#1710,#1417,#1418);
#1130=AXIS2_PLACEMENT_3D('',#1711,#1419,#1420);
#1131=AXIS2_PLACEMENT_3D('',#1712,#1421,#1422);
#1132=AXIS2_PLACEMENT_3D('',#1713,#1423,#1424);
#1133=AXIS2_PLACEMENT_3D('',#1714,#1425,#1426);
#1134=AXIS2_PLACEMENT_3D('',#1715,#1427,#1428);
#1135=DIRECTION('',(0.,0.,1.));
#1136=DIRECTION('',(1.,0.,0.));
#1137=DIRECTION('',(0.,0.,1.));
#1138=DIRECTION('',(1.,0.,0.));
#1139=DIRECTION('',(0.,1.,0.));
#1140=DIRECTION('',(1.,0.,0.));
#1141=DIRECTION('',(-1.7347234759768E-16,1.,0.));
#1142=DIRECTION('',(0.,0.,1.));
#1143=DIRECTION('',(1.,0.,0.));
#1144=DIRECTION('',(1.,0.,0.));
#1145=DIRECTION('',(0.,1.,0.));
#1146=DIRECTION('',(0.,0.,1.));
#1147=DIRECTION('',(1.,0.,0.));
#1148=DIRECTION('',(1.,0.,0.));
#1149=DIRECTION('',(0.,-1.,0.));
#1150=DIRECTION('',(1.,0.,0.));
#1151=DIRECTION('',(0.,1.,0.));
#1152=DIRECTION('',(1.,0.,0.));
#1153=DIRECTION('',(0.,1.,0.));
#1154=DIRECTION('',(-1.,0.,0.));
#1155=DIRECTION('',(0.,0.,1.));
#1156=DIRECTION('',(1.,0.,0.));
#1157=DIRECTION('',(0.,-1.,0.));
#1158=DIRECTION('',(0.,0.,1.));
#1159=DIRECTION('',(1.,0.,0.));
#1160=DIRECTION('',(1.,0.,0.));
#1161=DIRECTION('',(0.,0.,1.));
#1162=DIRECTION('',(1.,0.,0.));
#1163=DIRECTION('',(5.79709756709266E-17,-1.,0.));
#1164=DIRECTION('',(0.,0.,1.));
#1165=DIRECTION('',(1.,0.,0.));
#1166=DIRECTION('',(1.,0.,0.));
#1167=DIRECTION('',(0.,0.,1.));
#1168=DIRECTION('',(1.,0.,0.));
#1169=DIRECTION('',(0.,1.,0.));
#1170=DIRECTION('',(1.,0.,0.));
#1171=DIRECTION('',(0.,-1.,0.));
#1172=DIRECTION('',(-1.,0.,0.));
#1173=DIRECTION('',(0.,0.,1.));
#1174=DIRECTION('',(1.,0.,0.));
#1175=DIRECTION('',(1.,0.,0.));
#1176=DIRECTION('',(0.,1.,0.));
#1177=DIRECTION('',(1.,0.,0.));
#1178=DIRECTION('',(0.,1.,0.));
#1179=DIRECTION('',(1.,0.,0.));
#1180=DIRECTION('',(-1.7347234759768E-16,1.,0.));
#1181=DIRECTION('',(1.,0.,0.));
#1182=DIRECTION('',(0.,1.,0.));
#1183=DIRECTION('',(1.,0.,0.));
#1184=DIRECTION('',(0.,0.,-1.));
#1185=DIRECTION('',(0.,0.,-1.));
#1186=DIRECTION('',(0.,-1.,0.));
#1187=DIRECTION('',(0.,0.,-1.));
#1188=DIRECTION('',(0.,0.,-1.));
#1189=DIRECTION('',(-1.,0.,0.));
#1190=DIRECTION('',(0.,0.,1.));
#1191=DIRECTION('',(1.,0.,0.));
#1192=DIRECTION('',(0.,0.,-1.));
#1193=DIRECTION('',(0.,1.,0.));
#1194=DIRECTION('',(0.,0.,1.));
#1195=DIRECTION('',(1.,0.,0.));
#1196=DIRECTION('',(0.,0.,-1.));
#1197=DIRECTION('',(0.,0.,-1.));
#1198=DIRECTION('',(-1.,0.,0.));
#1199=DIRECTION('',(0.,0.,1.));
#1200=DIRECTION('',(1.,0.,0.));
#1201=DIRECTION('',(0.,0.,-1.));
#1202=DIRECTION('',(1.,5.79709756709266E-17,0.));
#1203=DIRECTION('',(-5.79709756709266E-17,1.,0.));
#1204=DIRECTION('',(5.79709756709266E-17,-1.,0.));
#1205=DIRECTION('',(0.,0.,-1.));
#1206=DIRECTION('',(0.,0.,-1.));
#1207=DIRECTION('',(-1.,0.,0.));
#1208=DIRECTION('',(0.,0.,1.));
#1209=DIRECTION('',(1.,0.,0.));
#1210=DIRECTION('',(0.,0.,-1.));
#1211=DIRECTION('',(0.,1.,0.));
#1212=DIRECTION('',(0.,0.,1.));
#1213=DIRECTION('',(1.,0.,0.));
#1214=DIRECTION('',(0.,0.,-1.));
#1215=DIRECTION('',(0.,0.,-1.));
#1216=DIRECTION('',(-1.,0.,0.));
#1217=DIRECTION('',(0.,0.,1.));
#1218=DIRECTION('',(1.,0.,0.));
#1219=DIRECTION('',(0.,0.,1.));
#1220=DIRECTION('',(1.,0.,0.));
#1221=DIRECTION('',(1.,0.,0.));
#1222=DIRECTION('',(0.,0.,1.));
#1223=DIRECTION('',(1.,0.,0.));
#1224=DIRECTION('',(0.,-1.,0.));
#1225=DIRECTION('',(0.,0.,1.));
#1226=DIRECTION('',(1.,0.,0.));
#1227=DIRECTION('',(1.,0.,0.));
#1228=DIRECTION('',(0.,0.,1.));
#1229=DIRECTION('',(1.,0.,0.));
#1230=DIRECTION('',(5.79709756709266E-17,-1.,0.));
#1231=DIRECTION('',(0.,0.,1.));
#1232=DIRECTION('',(1.,0.,0.));
#1233=DIRECTION('',(0.,0.,1.));
#1234=DIRECTION('',(1.,0.,0.));
#1235=DIRECTION('',(0.,1.,0.));
#1236=DIRECTION('',(0.,0.,1.));
#1237=DIRECTION('',(1.,0.,0.));
#1238=DIRECTION('',(0.,0.,-1.));
#1239=DIRECTION('',(1.,0.,0.));
#1240=DIRECTION('',(0.,0.,-1.));
#1241=DIRECTION('',(1.,0.,0.));
#1242=DIRECTION('',(0.,0.,-1.));
#1243=DIRECTION('',(5.79709756709266E-17,-1.,0.));
#1244=DIRECTION('',(1.,5.79709756709266E-17,0.));
#1245=DIRECTION('',(0.,1.,0.));
#1246=DIRECTION('',(0.,0.,1.));
#1247=DIRECTION('',(0.,0.,1.));
#1248=DIRECTION('',(1.,0.,0.));
#1249=DIRECTION('',(0.,1.,0.));
#1250=DIRECTION('',(0.,0.,1.));
#1251=DIRECTION('',(0.,0.,1.));
#1252=DIRECTION('',(1.,0.,0.));
#1253=DIRECTION('',(1.,0.,0.));
#1254=DIRECTION('',(0.,0.,-1.));
#1255=DIRECTION('',(0.,1.,0.));
#1256=DIRECTION('',(0.,0.,1.));
#1257=DIRECTION('',(0.,1.,0.));
#1258=DIRECTION('',(0.,0.,1.));
#1259=DIRECTION('',(-1.,0.,0.));
#1260=DIRECTION('',(0.,0.,1.));
#1261=DIRECTION('',(1.,0.,0.));
#1262=DIRECTION('',(0.,0.,-1.));
#1263=DIRECTION('',(0.,0.,1.));
#1264=DIRECTION('',(1.,0.,0.));
#1265=DIRECTION('',(0.,1.,0.));
#1266=DIRECTION('',(0.,0.,1.));
#1267=DIRECTION('',(0.,0.,-1.));
#1268=DIRECTION('',(1.,0.,0.));
#1269=DIRECTION('',(0.,0.,-1.));
#1270=DIRECTION('',(-1.,0.,0.));
#1271=DIRECTION('',(0.,0.,1.));
#1272=DIRECTION('',(1.,0.,0.));
#1273=DIRECTION('',(0.,0.,-1.));
#1274=DIRECTION('',(0.,0.,-1.));
#1275=DIRECTION('',(0.,1.,0.));
#1276=DIRECTION('',(0.,0.,-1.));
#1277=DIRECTION('',(-1.,0.,0.));
#1278=DIRECTION('',(0.,0.,-1.));
#1279=DIRECTION('',(0.,0.,1.));
#1280=DIRECTION('',(1.,0.,0.));
#1281=DIRECTION('',(0.,-1.,0.));
#1282=DIRECTION('',(0.,0.,-1.));
#1283=DIRECTION('',(0.,0.,-1.));
#1284=DIRECTION('',(-1.,0.,0.));
#1285=DIRECTION('',(1.,0.,0.));
#1286=DIRECTION('',(0.,0.,-1.));
#1287=DIRECTION('',(1.,0.,0.));
#1288=DIRECTION('',(0.,0.,-1.));
#1289=DIRECTION('',(0.,-1.,0.));
#1290=DIRECTION('',(0.,0.,1.));
#1291=DIRECTION('',(1.,0.,0.));
#1292=DIRECTION('',(-1.,0.,0.));
#1293=DIRECTION('',(0.,0.,1.));
#1294=DIRECTION('',(-1.,0.,0.));
#1295=DIRECTION('',(0.,0.,1.));
#1296=DIRECTION('',(0.,0.,-1.));
#1297=DIRECTION('',(0.,1.,0.));
#1298=DIRECTION('',(0.,0.,-1.));
#1299=DIRECTION('',(0.,0.,-1.));
#1300=DIRECTION('',(-1.,0.,0.));
#1301=DIRECTION('',(0.,0.,-1.));
#1302=DIRECTION('',(0.,0.,1.));
#1303=DIRECTION('',(1.,0.,0.));
#1304=DIRECTION('',(0.,-1.,0.));
#1305=DIRECTION('',(0.,0.,-1.));
#1306=DIRECTION('',(0.,0.,-1.));
#1307=DIRECTION('',(-1.,0.,0.));
#1308=DIRECTION('',(-1.,0.,0.));
#1309=DIRECTION('',(0.,0.,1.));
#1310=DIRECTION('',(-1.,0.,0.));
#1311=DIRECTION('',(0.,0.,1.));
#1312=DIRECTION('',(0.,0.,-1.));
#1313=DIRECTION('',(0.,1.,0.));
#1314=DIRECTION('',(0.,1.,0.));
#1315=DIRECTION('',(0.,0.,1.));
#1316=DIRECTION('',(1.,0.,0.));
#1317=DIRECTION('',(0.,0.,1.));
#1318=DIRECTION('',(1.,0.,0.));
#1319=DIRECTION('',(-1.,0.,0.));
#1320=DIRECTION('',(0.,0.,1.));
#1321=DIRECTION('',(-1.,0.,0.));
#1322=DIRECTION('',(0.,0.,1.));
#1323=DIRECTION('',(0.,0.,-1.));
#1324=DIRECTION('',(0.,1.,0.));
#1325=DIRECTION('',(0.,0.,-1.));
#1326=DIRECTION('',(0.,1.,0.));
#1327=DIRECTION('',(0.,0.,1.));
#1328=DIRECTION('',(0.,0.,-1.));
#1329=DIRECTION('',(1.,0.,0.));
#1330=DIRECTION('',(-1.,0.,0.));
#1331=DIRECTION('',(0.,0.,1.));
#1332=DIRECTION('',(-1.,0.,0.));
#1333=DIRECTION('',(0.,0.,1.));
#1334=DIRECTION('',(0.,0.,-1.));
#1335=DIRECTION('',(0.,1.,0.));
#1336=DIRECTION('',(0.,1.,0.));
#1337=DIRECTION('',(0.,0.,1.));
#1338=DIRECTION('',(1.,0.,0.));
#1339=DIRECTION('',(0.,0.,1.));
#1340=DIRECTION('',(1.,0.,0.));
#1341=DIRECTION('',(-1.,0.,0.));
#1342=DIRECTION('',(0.,0.,1.));
#1343=DIRECTION('',(-1.,0.,0.));
#1344=DIRECTION('',(0.,0.,1.));
#1345=DIRECTION('',(0.,0.,-1.));
#1346=DIRECTION('',(0.,1.,0.));
#1347=DIRECTION('',(0.,0.,-1.));
#1348=DIRECTION('',(0.,1.,0.));
#1349=DIRECTION('',(0.,0.,1.));
#1350=DIRECTION('',(0.,0.,-1.));
#1351=DIRECTION('',(1.,0.,0.));
#1352=DIRECTION('',(1.,0.,0.));
#1353=DIRECTION('',(0.,0.,-1.));
#1354=DIRECTION('',(1.,0.,0.));
#1355=DIRECTION('',(0.,0.,-1.));
#1356=DIRECTION('',(0.,0.,-1.));
#1357=DIRECTION('',(0.,-1.,0.));
#1358=DIRECTION('',(0.,1.,0.));
#1359=DIRECTION('',(0.,0.,1.));
#1360=DIRECTION('',(0.,0.,-1.));
#1361=DIRECTION('',(1.,0.,0.));
#1362=DIRECTION('',(0.,0.,-1.));
#1363=DIRECTION('',(-1.,0.,0.));
#1364=DIRECTION('',(0.,0.,1.));
#1365=DIRECTION('',(1.,0.,0.));
#1366=DIRECTION('',(0.,0.,1.));
#1367=DIRECTION('',(1.,0.,0.));
#1368=DIRECTION('',(-1.,0.,0.));
#1369=DIRECTION('',(0.,0.,1.));
#1370=DIRECTION('',(-1.,0.,0.));
#1371=DIRECTION('',(0.,0.,1.));
#1372=DIRECTION('',(0.,0.,-1.));
#1373=DIRECTION('',(0.,1.,0.));
#1374=DIRECTION('',(0.,0.,-1.));
#1375=DIRECTION('',(0.,1.,0.));
#1376=DIRECTION('',(0.,0.,1.));
#1377=DIRECTION('',(0.,0.,-1.));
#1378=DIRECTION('',(1.,0.,0.));
#1379=DIRECTION('',(0.,0.,-1.));
#1380=DIRECTION('',(-1.,0.,0.));
#1381=DIRECTION('',(0.,0.,-1.));
#1382=DIRECTION('',(0.,0.,1.));
#1383=DIRECTION('',(1.,0.,0.));
#1384=DIRECTION('',(-1.,-1.7347234759768E-16,0.));
#1385=DIRECTION('',(1.7347234759768E-16,-1.,0.));
#1386=DIRECTION('',(1.,0.,0.));
#1387=DIRECTION('',(0.,0.,-1.));
#1388=DIRECTION('',(0.,0.,-1.));
#1389=DIRECTION('',(-1.7347234759768E-16,1.,0.));
#1390=DIRECTION('',(0.,1.,0.));
#1391=DIRECTION('',(0.,0.,1.));
#1392=DIRECTION('',(1.,0.,0.));
#1393=DIRECTION('',(0.,0.,1.));
#1394=DIRECTION('',(1.,0.,0.));
#1395=DIRECTION('',(-1.,-1.7347234759768E-16,0.));
#1396=DIRECTION('',(1.7347234759768E-16,-1.,0.));
#1397=DIRECTION('',(1.,0.,0.));
#1398=DIRECTION('',(0.,0.,-1.));
#1399=DIRECTION('',(0.,0.,-1.));
#1400=DIRECTION('',(-1.7347234759768E-16,1.,0.));
#1401=DIRECTION('',(0.,0.,-1.));
#1402=DIRECTION('',(0.,1.,0.));
#1403=DIRECTION('',(0.,0.,1.));
#1404=DIRECTION('',(0.,0.,-1.));
#1405=DIRECTION('',(1.,0.,0.));
#1406=DIRECTION('',(-1.,0.,0.));
#1407=DIRECTION('',(0.,0.,1.));
#1408=DIRECTION('',(-1.,0.,0.));
#1409=DIRECTION('',(0.,0.,1.));
#1410=DIRECTION('',(0.,0.,-1.));
#1411=DIRECTION('',(0.,1.,0.));
#1412=DIRECTION('',(0.,1.,0.));
#1413=DIRECTION('',(0.,0.,1.));
#1414=DIRECTION('',(1.,0.,0.));
#1415=DIRECTION('',(0.,0.,1.));
#1416=DIRECTION('',(1.,0.,0.));
#1417=DIRECTION('',(1.,0.,0.));
#1418=DIRECTION('',(0.,0.,-1.));
#1419=DIRECTION('',(1.,0.,0.));
#1420=DIRECTION('',(0.,0.,-1.));
#1421=DIRECTION('',(1.,0.,0.));
#1422=DIRECTION('',(0.,0.,-1.));
#1423=DIRECTION('',(1.,0.,0.));
#1424=DIRECTION('',(0.,0.,-1.));
#1425=DIRECTION('',(1.,0.,0.));
#1426=DIRECTION('',(0.,0.,-1.));
#1427=DIRECTION('',(1.,0.,0.));
#1428=DIRECTION('',(0.,0.,-1.));
#1429=CARTESIAN_POINT('',(0.,0.,0.));
#1430=CARTESIAN_POINT('',(0.0223338224895885,-0.00239615539396515,0.002));
#1431=CARTESIAN_POINT('',(0.00958382248958855,0.00710384460603485,0.002));
#1432=CARTESIAN_POINT('',(0.00958382248958855,0.00460384460603485,0.002));
#1433=CARTESIAN_POINT('',(0.00958382248958855,0.0140538446060348,0.002));
#1434=CARTESIAN_POINT('',(0.00860882248958855,0.00460384460603485,0.002));
#1435=CARTESIAN_POINT('',(0.00763382248958855,0.00460384460603485,0.002));
#1436=CARTESIAN_POINT('',(0.00763382248958855,0.00710384460603485,0.002));
#1437=CARTESIAN_POINT('',(0.00763382248958854,0.0125658446060348,0.002));
#1438=CARTESIAN_POINT('',(0.00912182248958855,0.0125658446060348,0.002));
#1439=CARTESIAN_POINT('',(0.00912182248958854,0.0140538446060348,0.002));
#1440=CARTESIAN_POINT('',(0.00935282248958855,0.0140538446060348,0.002));
#1441=CARTESIAN_POINT('',(0.0370338224895886,-0.0158771553939652,0.002));
#1442=CARTESIAN_POINT('',(0.0370338224895886,-0.0173581553939652,0.002));
#1443=CARTESIAN_POINT('',(0.0370338224895886,-0.00939615539396516,0.002));
#1444=CARTESIAN_POINT('',(0.0355458224895886,-0.0173581553939652,0.002));
#1445=CARTESIAN_POINT('',(0.0355458224895886,-0.0188461553939652,0.002));
#1446=CARTESIAN_POINT('',(0.0353148224895886,-0.0188461553939652,0.002));
#1447=CARTESIAN_POINT('',(0.0350838224895886,-0.0188461553939652,0.002));
#1448=CARTESIAN_POINT('',(0.0350838224895886,-0.0166211553939652,0.002));
#1449=CARTESIAN_POINT('',(0.0350838224895886,-0.00939615539396516,0.002));
#1450=CARTESIAN_POINT('',(0.0360588224895886,-0.00939615539396516,0.002));
#1451=CARTESIAN_POINT('',(0.0370338224895886,0.00710384460603484,0.002));
#1452=CARTESIAN_POINT('',(0.0370338224895886,0.00460384460603484,0.002));
#1453=CARTESIAN_POINT('',(0.0370338224895886,0.0125658446060348,0.002));
#1454=CARTESIAN_POINT('',(0.0360588224895886,0.00460384460603484,0.002));
#1455=CARTESIAN_POINT('',(0.0350838224895886,0.00460384460603484,0.002));
#1456=CARTESIAN_POINT('',(0.0350838224895886,0.00710384460603484,0.002));
#1457=CARTESIAN_POINT('',(0.0350838224895886,0.0140538446060348,0.002));
#1458=CARTESIAN_POINT('',(0.0353148224895886,0.0140538446060348,0.002));
#1459=CARTESIAN_POINT('',(0.0355458224895886,0.0140538446060348,0.002));
#1460=CARTESIAN_POINT('',(0.0355458224895886,0.0125658446060348,0.002));
#1461=CARTESIAN_POINT('',(0.0390838224895886,-0.00239615539396515,0.002));
#1462=CARTESIAN_POINT('',(0.0390838224895886,0.0125658446060348,0.002));
#1463=CARTESIAN_POINT('',(0.0390838224895886,-0.0173581553939652,0.002));
#1464=CARTESIAN_POINT('',(0.0355458224895886,0.0125658446060348,0.002));
#1465=CARTESIAN_POINT('',(0.0355458224895886,0.0161038446060348,0.002));
#1466=CARTESIAN_POINT('',(0.0223338224895885,0.0161038446060348,0.002));
#1467=CARTESIAN_POINT('',(0.00912182248958855,0.0161038446060348,0.002));
#1468=CARTESIAN_POINT('',(0.00912182248958855,0.0125658446060348,0.002));
#1469=CARTESIAN_POINT('',(0.00558382248958855,0.0125658446060348,0.002));
#1470=CARTESIAN_POINT('',(0.00558382248958855,-0.00239615539396516,0.002));
#1471=CARTESIAN_POINT('',(0.00558382248958855,-0.0173581553939652,0.002));
#1472=CARTESIAN_POINT('',(0.00912182248958855,-0.0173581553939652,0.002));
#1473=CARTESIAN_POINT('',(0.00912182248958855,-0.0208961553939652,0.002));
#1474=CARTESIAN_POINT('',(0.0223338224895885,-0.0208961553939652,0.002));
#1475=CARTESIAN_POINT('',(0.0355458224895886,-0.0208961553939652,0.002));
#1476=CARTESIAN_POINT('',(0.0355458224895886,-0.0173581553939652,0.002));
#1477=CARTESIAN_POINT('',(0.00763382248958855,-0.0158771553939652,0.002));
#1478=CARTESIAN_POINT('',(0.00763382248958855,-0.0173581553939652,0.002));
#1479=CARTESIAN_POINT('',(0.00763382248958855,-0.00939615539396516,0.002));
#1480=CARTESIAN_POINT('',(0.00860882248958855,-0.00939615539396516,0.002));
#1481=CARTESIAN_POINT('',(0.00958382248958855,-0.00939615539396516,0.002));
#1482=CARTESIAN_POINT('',(0.00958382248958855,-0.0166211553939652,0.002));
#1483=CARTESIAN_POINT('',(0.00958382248958855,-0.0188461553939652,0.002));
#1484=CARTESIAN_POINT('',(0.00935282248958855,-0.0188461553939652,0.002));
#1485=CARTESIAN_POINT('',(0.00912182248958855,-0.0188461553939652,0.002));
#1486=CARTESIAN_POINT('',(0.00912182248958855,-0.0173581553939652,0.002));
#1487=CARTESIAN_POINT('',(0.0360588224895886,-0.00489615539396516,0.002));
#1488=CARTESIAN_POINT('',(0.0350838224895886,-0.00489615539396516,0.002));
#1489=CARTESIAN_POINT('',(0.0370338224895886,-0.00489615539396516,0.002));
#1490=CARTESIAN_POINT('',(0.0350838224895886,-0.00239615539396516,0.002));
#1491=CARTESIAN_POINT('',(0.0350838224895886,0.000103844606034841,0.002));
#1492=CARTESIAN_POINT('',(0.0360588224895886,0.000103844606034841,0.002));
#1493=CARTESIAN_POINT('',(0.0370338224895886,0.000103844606034841,0.002));
#1494=CARTESIAN_POINT('',(0.0370338224895886,-0.00239615539396516,0.002));
#1495=CARTESIAN_POINT('',(0.00860882248958855,-0.00489615539396516,0.002));
#1496=CARTESIAN_POINT('',(0.00763382248958855,-0.00489615539396516,0.002));
#1497=CARTESIAN_POINT('',(0.00958382248958855,-0.00489615539396516,0.002));
#1498=CARTESIAN_POINT('',(0.00763382248958855,-0.00239615539396515,0.002));
#1499=CARTESIAN_POINT('',(0.00763382248958855,0.000103844606034845,0.002));
#1500=CARTESIAN_POINT('',(0.00860882248958855,0.000103844606034845,0.002));
#1501=CARTESIAN_POINT('',(0.00958382248958855,0.000103844606034845,0.002));
#1502=CARTESIAN_POINT('',(0.00958382248958855,-0.00239615539396515,0.002));
#1503=CARTESIAN_POINT('',(0.0390838224895886,-0.00239615539396515,0.002));
#1504=CARTESIAN_POINT('',(0.0390838224895886,-0.0173581553939652,0.002));
#1505=CARTESIAN_POINT('',(0.0390838224895886,-0.0173581553939652,0.001));
#1506=CARTESIAN_POINT('',(0.0390838224895886,0.0125658446060348,0.001));
#1507=CARTESIAN_POINT('',(0.0390838224895886,0.0125658446060348,0.001));
#1508=CARTESIAN_POINT('',(0.0390838224895886,0.0125658446060348,0.002));
#1509=CARTESIAN_POINT('',(0.0355458224895886,0.0125658446060348,0.002));
#1510=CARTESIAN_POINT('',(0.0355458224895886,0.0125658446060348,0.001));
#1511=CARTESIAN_POINT('',(0.0355458224895886,0.0161038446060348,0.001));
#1512=CARTESIAN_POINT('',(0.0355458224895886,0.0161038446060348,0.002));
#1513=CARTESIAN_POINT('',(0.0223338224895885,0.0161038446060348,0.002));
#1514=CARTESIAN_POINT('',(0.00912182248958855,0.0161038446060348,0.001));
#1515=CARTESIAN_POINT('',(0.00912182248958855,0.0161038446060348,0.001));
#1516=CARTESIAN_POINT('',(0.00912182248958855,0.0161038446060348,0.002));
#1517=CARTESIAN_POINT('',(0.00912182248958855,0.0125658446060348,0.002));
#1518=CARTESIAN_POINT('',(0.00912182248958855,0.0125658446060348,0.001));
#1519=CARTESIAN_POINT('',(0.00558382248958855,0.0125658446060348,0.001));
#1520=CARTESIAN_POINT('',(0.00558382248958855,0.0125658446060348,0.002));
#1521=CARTESIAN_POINT('',(0.00558382248958855,-0.00239615539396516,0.002));
#1522=CARTESIAN_POINT('',(0.00558382248958855,-0.00239615539396516,0.001));
#1523=CARTESIAN_POINT('',(0.00558382248958855,-0.0173581553939652,0.001));
#1524=CARTESIAN_POINT('',(0.00558382248958855,-0.0173581553939652,0.002));
#1525=CARTESIAN_POINT('',(0.00912182248958855,-0.0173581553939652,0.002));
#1526=CARTESIAN_POINT('',(0.00912182248958855,-0.0173581553939652,0.001));
#1527=CARTESIAN_POINT('',(0.00912182248958855,-0.0208961553939652,0.001));
#1528=CARTESIAN_POINT('',(0.00912182248958855,-0.0208961553939652,0.002));
#1529=CARTESIAN_POINT('',(0.0223338224895885,-0.0208961553939652,0.002));
#1530=CARTESIAN_POINT('',(0.0223338224895885,-0.0208961553939652,0.001));
#1531=CARTESIAN_POINT('',(0.0355458224895886,-0.0208961553939652,0.001));
#1532=CARTESIAN_POINT('',(0.0355458224895886,-0.0208961553939652,0.002));
#1533=CARTESIAN_POINT('',(0.0355458224895886,-0.0173581553939652,0.002));
#1534=CARTESIAN_POINT('',(0.0355458224895886,-0.0173581553939652,0.001));
#1535=CARTESIAN_POINT('',(0.0223338224895885,-0.00239615539396515,0.));
#1536=CARTESIAN_POINT('',(0.0355458224895886,0.0151038446060348,0.));
#1537=CARTESIAN_POINT('',(0.00912182248958855,0.0151038446060348,0.));
#1538=CARTESIAN_POINT('',(0.0355458224895886,0.0151038446060348,0.));
#1539=CARTESIAN_POINT('',(0.0355458224895886,0.0125658446060348,0.));
#1540=CARTESIAN_POINT('',(0.0380838224895886,0.0125658446060348,0.));
#1541=CARTESIAN_POINT('',(0.0380838224895886,-0.0173581553939652,0.));
#1542=CARTESIAN_POINT('',(0.0380838224895886,-0.0173581553939652,0.));
#1543=CARTESIAN_POINT('',(0.0355458224895886,-0.0173581553939652,0.));
#1544=CARTESIAN_POINT('',(0.0355458224895886,-0.0198961553939652,0.));
#1545=CARTESIAN_POINT('',(0.0223338224895885,-0.0198961553939652,0.));
#1546=CARTESIAN_POINT('',(0.00912182248958855,-0.0198961553939652,0.));
#1547=CARTESIAN_POINT('',(0.00912182248958855,-0.0173581553939652,0.));
#1548=CARTESIAN_POINT('',(0.00658382248958855,-0.0173581553939652,0.));
#1549=CARTESIAN_POINT('',(0.00658382248958855,-0.00239615539396515,0.));
#1550=CARTESIAN_POINT('',(0.00658382248958855,0.0125658446060348,0.));
#1551=CARTESIAN_POINT('',(0.00912182248958855,0.0125658446060348,0.));
#1552=CARTESIAN_POINT('',(0.00912182248958855,-0.0173581553939652,0.001));
#1553=CARTESIAN_POINT('',(0.00658382248958855,-0.0173581553939652,0.001));
#1554=CARTESIAN_POINT('',(0.00912182248958855,-0.0198961553939652,0.001));
#1555=CARTESIAN_POINT('',(0.0223338224895885,-0.0198961553939652,0.001));
#1556=CARTESIAN_POINT('',(0.0355458224895886,-0.0198961553939652,0.001));
#1557=CARTESIAN_POINT('',(0.00658382248958855,-0.00239615539396516,0.001));
#1558=CARTESIAN_POINT('',(0.00658382248958855,0.0125658446060348,0.001));
#1559=CARTESIAN_POINT('',(0.0355458224895886,-0.0173581553939652,0.001));
#1560=CARTESIAN_POINT('',(0.0380838224895886,-0.0173581553939652,0.001));
#1561=CARTESIAN_POINT('',(0.00912182248958855,0.0125658446060348,0.001));
#1562=CARTESIAN_POINT('',(0.00912182248958855,0.0151038446060348,0.001));
#1563=CARTESIAN_POINT('',(0.0380838224895886,-0.00239615539396515,0.001));
#1564=CARTESIAN_POINT('',(0.0380838224895886,0.0125658446060348,0.001));
#1565=CARTESIAN_POINT('',(0.0223338224895885,0.0151038446060348,0.001));
#1566=CARTESIAN_POINT('',(0.0355458224895886,0.0151038446060348,0.001));
#1567=CARTESIAN_POINT('',(0.0355458224895886,0.0125658446060348,0.001));
#1568=CARTESIAN_POINT('',(0.00860882248958855,-0.00939615539396516,0.0065));
#1569=CARTESIAN_POINT('',(0.00763382248958855,-0.00939615539396516,0.0065));
#1570=CARTESIAN_POINT('',(0.00763382248958855,-0.00939615539396516,0.0065));
#1571=CARTESIAN_POINT('',(0.00860882248958855,-0.00939615539396516,0.0065));
#1572=CARTESIAN_POINT('',(0.00958382248958855,-0.00939615539396516,0.0065));
#1573=CARTESIAN_POINT('',(0.00958382248958855,-0.00939615539396516,0.0065));
#1574=CARTESIAN_POINT('',(0.00763382248958855,-0.0158771553939652,0.0065));
#1575=CARTESIAN_POINT('',(0.00763382248958854,-0.0148581553939652,0.005));
#1576=CARTESIAN_POINT('',(0.00763382248958854,-0.0148581553939652,0.004375));
#1577=CARTESIAN_POINT('',(0.00763382248958855,-0.0173581553939652,0.0065));
#1578=CARTESIAN_POINT('',(0.00763382248958855,-0.0173581553939652,0.0065));
#1579=CARTESIAN_POINT('',(0.00763382248958855,-0.0158771553939652,0.0065));
#1580=CARTESIAN_POINT('',(0.00912182248958855,-0.0173581553939652,0.0065));
#1581=CARTESIAN_POINT('',(0.00912182248958855,-0.0188461553939652,0.0065));
#1582=CARTESIAN_POINT('',(0.00912182248958855,-0.0188461553939652,0.0065));
#1583=CARTESIAN_POINT('',(0.00912182248958855,-0.0173581553939652,0.0065));
#1584=CARTESIAN_POINT('',(0.00935282248958855,-0.0188461553939652,0.0065));
#1585=CARTESIAN_POINT('',(0.00958382248958855,-0.0188461553939652,0.0065));
#1586=CARTESIAN_POINT('',(0.00958382248958855,-0.0188461553939652,0.0065));
#1587=CARTESIAN_POINT('',(0.00935282248958855,-0.0188461553939652,0.0065));
#1588=CARTESIAN_POINT('',(0.00958382248958855,-0.0166211553939652,0.0065));
#1589=CARTESIAN_POINT('',(0.00958382248958855,-0.0148581553939652,0.005));
#1590=CARTESIAN_POINT('',(0.00958382248958855,-0.0148581553939652,0.004375));
#1591=CARTESIAN_POINT('',(0.00958382248958855,-0.0166211553939652,0.0065));
#1592=CARTESIAN_POINT('',(0.0223338224895885,-0.00239615539396515,0.0065));
#1593=CARTESIAN_POINT('',(0.0370338224895886,0.00710384460603484,0.0065));
#1594=CARTESIAN_POINT('',(0.0370338224895886,0.0100658446060348,0.005));
#1595=CARTESIAN_POINT('',(0.0370338224895886,0.0100658446060348,0.005625));
#1596=CARTESIAN_POINT('',(0.0370338224895886,0.0125658446060348,0.0065));
#1597=CARTESIAN_POINT('',(0.0370338224895886,0.0125658446060348,0.0065));
#1598=CARTESIAN_POINT('',(0.0370338224895886,0.00710384460603484,0.0065));
#1599=CARTESIAN_POINT('',(0.0370338224895886,0.00460384460603484,0.0065));
#1600=CARTESIAN_POINT('',(0.0370338224895886,0.00460384460603484,0.0065));
#1601=CARTESIAN_POINT('',(0.0355458224895886,0.0125658446060348,0.0065));
#1602=CARTESIAN_POINT('',(0.0355458224895886,0.0140538446060348,0.0065));
#1603=CARTESIAN_POINT('',(0.0355458224895886,0.0140538446060348,0.0065));
#1604=CARTESIAN_POINT('',(0.0355458224895886,0.0125658446060348,0.0065));
#1605=CARTESIAN_POINT('',(0.0353148224895886,0.0140538446060348,0.0065));
#1606=CARTESIAN_POINT('',(0.0350838224895886,0.0140538446060348,0.0065));
#1607=CARTESIAN_POINT('',(0.0350838224895886,0.0140538446060348,0.0065));
#1608=CARTESIAN_POINT('',(0.0353148224895886,0.0140538446060348,0.0065));
#1609=CARTESIAN_POINT('',(0.0350838224895886,0.00710384460603484,0.0065));
#1610=CARTESIAN_POINT('',(0.0350838224895886,0.0100658446060348,0.005));
#1611=CARTESIAN_POINT('',(0.0350838224895886,0.0100658446060348,0.005625));
#1612=CARTESIAN_POINT('',(0.0350838224895886,0.00460384460603484,0.0065));
#1613=CARTESIAN_POINT('',(0.0350838224895886,0.00460384460603484,0.0065));
#1614=CARTESIAN_POINT('',(0.0350838224895886,0.00710384460603484,0.0065));
#1615=CARTESIAN_POINT('',(0.0360588224895886,0.00460384460603484,0.0065));
#1616=CARTESIAN_POINT('',(0.0360588224895886,0.00460384460603484,0.0065));
#1617=CARTESIAN_POINT('',(0.0223338224895885,-0.00239615539396515,0.0065));
#1618=CARTESIAN_POINT('',(0.0350838224895886,-0.00239615539396516,0.0065));
#1619=CARTESIAN_POINT('',(0.0350838224895886,-0.00239615539396515,0.005));
#1620=CARTESIAN_POINT('',(0.0350838224895886,-0.00239615539396515,0.005625));
#1621=CARTESIAN_POINT('',(0.0350838224895886,-0.00489615539396516,0.0065));
#1622=CARTESIAN_POINT('',(0.0350838224895886,-0.00489615539396516,0.0065));
#1623=CARTESIAN_POINT('',(0.0350838224895886,-0.00239615539396516,0.0065));
#1624=CARTESIAN_POINT('',(0.0350838224895886,0.000103844606034841,0.0065));
#1625=CARTESIAN_POINT('',(0.0350838224895886,0.000103844606034841,0.0065));
#1626=CARTESIAN_POINT('',(0.0360588224895886,-0.00489615539396516,0.0065));
#1627=CARTESIAN_POINT('',(0.0370338224895886,-0.00489615539396516,0.0065));
#1628=CARTESIAN_POINT('',(0.0370338224895886,-0.00489615539396516,0.0065));
#1629=CARTESIAN_POINT('',(0.0360588224895886,-0.00489615539396516,0.0065));
#1630=CARTESIAN_POINT('',(0.0370338224895886,-0.00239615539396516,0.0065));
#1631=CARTESIAN_POINT('',(0.0370338224895886,-0.00239615539396515,0.005));
#1632=CARTESIAN_POINT('',(0.0370338224895886,-0.00239615539396515,0.005625));
#1633=CARTESIAN_POINT('',(0.0370338224895886,0.000103844606034841,0.0065));
#1634=CARTESIAN_POINT('',(0.0370338224895886,0.000103844606034841,0.0065));
#1635=CARTESIAN_POINT('',(0.0370338224895886,-0.00239615539396516,0.0065));
#1636=CARTESIAN_POINT('',(0.0360588224895886,0.000103844606034841,0.0065));
#1637=CARTESIAN_POINT('',(0.0360588224895886,0.000103844606034841,0.0065));
#1638=CARTESIAN_POINT('',(0.0223338224895885,-0.00239615539396515,0.0065));
#1639=CARTESIAN_POINT('',(0.0370338224895886,-0.0158771553939652,0.0065));
#1640=CARTESIAN_POINT('',(0.0370338224895886,-0.0148581553939652,0.005));
#1641=CARTESIAN_POINT('',(0.0370338224895886,-0.0148581553939652,0.005625));
#1642=CARTESIAN_POINT('',(0.0370338224895886,-0.00939615539396516,0.0065));
#1643=CARTESIAN_POINT('',(0.0370338224895886,-0.00939615539396516,0.0065));
#1644=CARTESIAN_POINT('',(0.0370338224895886,-0.0158771553939652,0.0065));
#1645=CARTESIAN_POINT('',(0.0370338224895886,-0.0173581553939652,0.0065));
#1646=CARTESIAN_POINT('',(0.0370338224895886,-0.0173581553939652,0.0065));
#1647=CARTESIAN_POINT('',(0.0360588224895886,-0.00939615539396516,0.0065));
#1648=CARTESIAN_POINT('',(0.0350838224895886,-0.00939615539396516,0.0065));
#1649=CARTESIAN_POINT('',(0.0350838224895886,-0.00939615539396516,0.0065));
#1650=CARTESIAN_POINT('',(0.0360588224895886,-0.00939615539396516,0.0065));
#1651=CARTESIAN_POINT('',(0.0350838224895886,-0.0166211553939652,0.0065));
#1652=CARTESIAN_POINT('',(0.0350838224895886,-0.0148581553939652,0.005));
#1653=CARTESIAN_POINT('',(0.0350838224895886,-0.0148581553939652,0.004375));
#1654=CARTESIAN_POINT('',(0.0350838224895886,-0.0188461553939652,0.0065));
#1655=CARTESIAN_POINT('',(0.0350838224895886,-0.0188461553939652,0.0065));
#1656=CARTESIAN_POINT('',(0.0350838224895886,-0.0166211553939652,0.0065));
#1657=CARTESIAN_POINT('',(0.0353148224895886,-0.0188461553939652,0.0065));
#1658=CARTESIAN_POINT('',(0.0355458224895886,-0.0188461553939652,0.0065));
#1659=CARTESIAN_POINT('',(0.0355458224895886,-0.0188461553939652,0.0065));
#1660=CARTESIAN_POINT('',(0.0353148224895886,-0.0188461553939652,0.0065));
#1661=CARTESIAN_POINT('',(0.0355458224895886,-0.0173581553939652,0.0065));
#1662=CARTESIAN_POINT('',(0.0355458224895886,-0.0173581553939652,0.0065));
#1663=CARTESIAN_POINT('',(0.0223338224895885,-0.00239615539396515,0.0065));
#1664=CARTESIAN_POINT('',(0.00958382248958855,0.00710384460603485,0.0065));
#1665=CARTESIAN_POINT('',(0.00958382248958855,0.0100658446060348,0.005));
#1666=CARTESIAN_POINT('',(0.00958382248958855,0.0100658446060348,0.005625));
#1667=CARTESIAN_POINT('',(0.00958382248958855,0.0140538446060348,0.0065));
#1668=CARTESIAN_POINT('',(0.00958382248958855,0.0140538446060348,0.0065));
#1669=CARTESIAN_POINT('',(0.00958382248958855,0.00710384460603485,0.0065));
#1670=CARTESIAN_POINT('',(0.00958382248958855,0.00460384460603485,0.0065));
#1671=CARTESIAN_POINT('',(0.00958382248958855,0.00460384460603485,0.0065));
#1672=CARTESIAN_POINT('',(0.00935282248958855,0.0140538446060348,0.0065));
#1673=CARTESIAN_POINT('',(0.00912182248958854,0.0140538446060348,0.0065));
#1674=CARTESIAN_POINT('',(0.00912182248958854,0.0140538446060348,0.0065));
#1675=CARTESIAN_POINT('',(0.00935282248958855,0.0140538446060348,0.0065));
#1676=CARTESIAN_POINT('',(0.00912182248958855,0.0125658446060348,0.0065));
#1677=CARTESIAN_POINT('',(0.00763382248958854,0.0125658446060348,0.0065));
#1678=CARTESIAN_POINT('',(0.00763382248958854,0.0125658446060348,0.0065));
#1679=CARTESIAN_POINT('',(0.00912182248958855,0.0125658446060348,0.0065));
#1680=CARTESIAN_POINT('',(0.00763382248958855,0.00710384460603485,0.0065));
#1681=CARTESIAN_POINT('',(0.00763382248958854,0.0100658446060348,0.005));
#1682=CARTESIAN_POINT('',(0.00763382248958854,0.0100658446060348,0.004375));
#1683=CARTESIAN_POINT('',(0.00763382248958855,0.00460384460603485,0.0065));
#1684=CARTESIAN_POINT('',(0.00763382248958855,0.00460384460603485,0.0065));
#1685=CARTESIAN_POINT('',(0.00763382248958855,0.00710384460603485,0.0065));
#1686=CARTESIAN_POINT('',(0.00860882248958855,0.00460384460603485,0.0065));
#1687=CARTESIAN_POINT('',(0.00860882248958855,0.00460384460603485,0.0065));
#1688=CARTESIAN_POINT('',(0.0223338224895885,-0.00239615539396515,0.0065));
#1689=CARTESIAN_POINT('',(0.00763382248958855,-0.00239615539396515,0.0065));
#1690=CARTESIAN_POINT('',(0.00763382248958854,-0.00239615539396515,0.005));
#1691=CARTESIAN_POINT('',(0.00763382248958854,-0.00239615539396515,0.004375));
#1692=CARTESIAN_POINT('',(0.00763382248958855,-0.00489615539396516,0.0065));
#1693=CARTESIAN_POINT('',(0.00763382248958855,-0.00489615539396516,0.0065));
#1694=CARTESIAN_POINT('',(0.00763382248958855,-0.00239615539396515,0.0065));
#1695=CARTESIAN_POINT('',(0.00763382248958855,0.000103844606034845,0.0065));
#1696=CARTESIAN_POINT('',(0.00763382248958855,0.000103844606034845,0.0065));
#1697=CARTESIAN_POINT('',(0.00860882248958855,-0.00489615539396516,0.0065));
#1698=CARTESIAN_POINT('',(0.00958382248958855,-0.00489615539396516,0.0065));
#1699=CARTESIAN_POINT('',(0.00958382248958855,-0.00489615539396516,0.0065));
#1700=CARTESIAN_POINT('',(0.00860882248958855,-0.00489615539396516,0.0065));
#1701=CARTESIAN_POINT('',(0.00958382248958855,-0.00239615539396515,0.0065));
#1702=CARTESIAN_POINT('',(0.00958382248958855,-0.00239615539396515,0.005));
#1703=CARTESIAN_POINT('',(0.00958382248958855,-0.00239615539396515,0.005625));
#1704=CARTESIAN_POINT('',(0.00958382248958855,0.000103844606034845,0.0065));
#1705=CARTESIAN_POINT('',(0.00958382248958855,0.000103844606034845,0.0065));
#1706=CARTESIAN_POINT('',(0.00958382248958855,-0.00239615539396515,0.0065));
#1707=CARTESIAN_POINT('',(0.00860882248958855,0.000103844606034845,0.0065));
#1708=CARTESIAN_POINT('',(0.00860882248958855,0.000103844606034845,0.0065));
#1709=CARTESIAN_POINT('',(0.0223338224895885,-0.00239615539396515,0.0065));
#1710=CARTESIAN_POINT('',(0.00763382248958855,-0.00239615539396515,0.005));
#1711=CARTESIAN_POINT('',(0.00763382248958855,0.0100658446060348,0.005));
#1712=CARTESIAN_POINT('',(0.00763382248958855,-0.0148581553939652,0.005));
#1713=CARTESIAN_POINT('',(0.00763382248958855,-0.00239615539396515,0.005));
#1714=CARTESIAN_POINT('',(0.00763382248958855,0.0100658446060348,0.005));
#1715=CARTESIAN_POINT('',(0.00763382248958855,-0.0148581553939652,0.005));
#1716=MECHANICAL_DESIGN_GEOMETRIC_PRESENTATION_REPRESENTATION('',(#1025),
#1717);
#1717=(
GEOMETRIC_REPRESENTATION_CONTEXT(3)
GLOBAL_UNCERTAINTY_ASSIGNED_CONTEXT((#1718))
GLOBAL_UNIT_ASSIGNED_CONTEXT((#1721,#1720,#1719))
REPRESENTATION_CONTEXT('Back Cover','TOP_LEVEL_ASSEMBLY_PART')
);
#1718=UNCERTAINTY_MEASURE_WITH_UNIT(LENGTH_MEASURE(1.E-8),#1721,
'DISTANCE_ACCURACY_VALUE','Maximum Tolerance applied to model');
#1719=(
NAMED_UNIT(*)
SI_UNIT($,.STERADIAN.)
SOLID_ANGLE_UNIT()
);
#1720=(
NAMED_UNIT(*)
PLANE_ANGLE_UNIT()
SI_UNIT($,.RADIAN.)
);
#1721=(
LENGTH_UNIT()
NAMED_UNIT(*)
SI_UNIT($,.METRE.)
);
#1722=PRODUCT_DEFINITION_SHAPE('','',#1723);
#1723=PRODUCT_DEFINITION('','',#1725,#1724);
#1724=PRODUCT_DEFINITION_CONTEXT('',#1731,'design');
#1725=PRODUCT_DEFINITION_FORMATION_WITH_SPECIFIED_SOURCE('','',#1727,
 .NOT_KNOWN.);
#1726=PRODUCT_RELATED_PRODUCT_CATEGORY('','',(#1727));
#1727=PRODUCT('Back Cover','Back Cover','Back Cover',(#1729));
#1728=PRODUCT_CATEGORY('','');
#1729=PRODUCT_CONTEXT('',#1731,'mechanical');
#1730=APPLICATION_PROTOCOL_DEFINITION('international standard',
'ap242_managed_model_based_3d_engineering',2011,#1731);
#1731=APPLICATION_CONTEXT('managed model based 3d engineering');
ENDSEC;
END-ISO-10303-21;
